<?xml version="1.0" encoding="utf-8"?>
<!-- Generator: Adobe Illustrator 22.1.0, SVG Export Plug-In . SVG Version: 6.00 Build 0)  -->
<svg version="1.1" id="图层_1" xmlns="http://www.w3.org/2000/svg" xmlns:xlink="http://www.w3.org/1999/xlink" x="0px" y="0px"
	 viewBox="0 0 3572.8 2488.4" style="enable-background:new 0 0 3572.8 2488.4;" xml:space="preserve">
<style type="text/css">
	.st0{fill-rule:evenodd;clip-rule:evenodd;fill:none;stroke:#333333;stroke-width:6;stroke-linecap:round;stroke-miterlimit:10;}
	.st1{fill:none;stroke:#333333;stroke-width:4;stroke-linecap:round;stroke-miterlimit:10;}
	.st2{font-family:'HYXiaoMaiTiJ';}
	.st3{font-size:40px;}
	.st4{fill:none;stroke:#333333;stroke-width:2;stroke-linecap:round;stroke-miterlimit:10;}
	.st5{fill:none;stroke:#999999;stroke-width:4;stroke-linecap:round;stroke-miterlimit:10;}
	.st6{font-size:40px;glyph-orientation-vertical:0;writing-mode:tb;}
	.st7{fill:none;stroke:#ff0000;stroke-width:6;stroke-linecap:round;stroke-miterlimit:10;}
	.st8{fill:#CCCCCC;}
	.st9{fill:none;stroke:#ff0000;stroke-miterlimit:10;}
	.st10{fill-rule:evenodd;clip-rule:evenodd;fill:none;stroke:#ff0000;stroke-miterlimit:10;}
	.st11{fill-rule:evenodd;clip-rule:evenodd;fill:#CCCCCC;}
	.st12{fill:none;stroke:#333333;stroke-linecap:round;stroke-miterlimit:10;}
	.st13{fill-rule:evenodd;clip-rule:evenodd;fill:none;stroke:#333333;stroke-width:4;stroke-linecap:round;stroke-miterlimit:10;}
	.st14{fill-rule:evenodd;clip-rule:evenodd;fill:none;stroke:#595859;stroke-width:8;stroke-miterlimit:10;}
</style>
<path id="XMLID_920_" class="st0" d="M3019.2,1838.2"/>
<g>
	<path class="st1" d="M2730.1,877h76.8c7.2,0,13,5.9,13,13v737.3c0,7.2-5.8,13-13,13h-77"/>
</g>
<g>
	<line class="st1" x1="1539.1" y1="877" x2="2668.7" y2="877"/>
</g>
<g>
	<path class="st1" d="M1477.9,1640.3h-82.2c-7.2,0-13-5.8-13-13V890c0-7.1,5.8-13,13-13h82.2"/>
</g>
<g>
	<line class="st1" x1="2668.9" y1="1640.3" x2="1538.8" y2="1640.3"/>
</g>
<text transform="matrix(1 0 0 1 1853.6986 1740.4457)" class="st2 st3">开敞办公区</text>
<g>
	<line class="st1" x1="1290.1" y1="1640.5" x2="1129.1" y2="1640.5"/>
</g>
<g>
	<path class="st1" d="M1036,1313.7V889.9c0-7.2,5.8-13,13-13h320.7c7.2,0,13,5.8,13,13v737.6c0,7.1-5.8,13-13,13h-18.5"/>
</g>
<g>
	<path class="st1" d="M1068.1,1640.5H1049c-7.2,0-13-5.9-13-13v-253.2"/>
</g>
<line class="st1" x1="1037.1" y1="1399.6" x2="1381.8" y2="1399.6"/>
<line class="st1" x1="1209.3" y1="1401.1" x2="1209.3" y2="1637.9"/>
<g>
	<g>
		<path class="st4" d="M1174.7,1585.4c0,4.4,3.6,8,8,8h13c4.4,0,8-3.6,8-8v-171.8c0-4.4-3.6-8-8-8h-13c-4.4,0-8,3.6-8,8V1585.4z"/>
	</g>
	<line class="st4" x1="1198" y1="1406.7" x2="1181" y2="1593.1"/>
	<line class="st4" x1="1198" y1="1593.1" x2="1181" y2="1406.7"/>
</g>
<g>
	<g>
		<path class="st4" d="M1244,1585.4c0,4.4-3.6,8-8,8h-13c-4.4,0-8-3.6-8-8v-171.8c0-4.4,3.6-8,8-8h13c4.4,0,8,3.6,8,8V1585.4z"/>
	</g>
	<line class="st4" x1="1220.7" y1="1407" x2="1237.7" y2="1592.4"/>
	<line class="st4" x1="1220.7" y1="1592.4" x2="1237.7" y2="1407"/>
</g>
<g>
	<line class="st5" x1="1068" y1="1640.5" x2="1127.1" y2="1640.5"/>
	<g>
		<line class="st1" x1="1067.9" y1="1640" x2="1067.9" y2="1578.2"/>
		<path class="st4" d="M1129,1639.8c0-33.5-27.2-60.7-60.7-60.7"/>
	</g>
</g>
<g>
	<line class="st5" x1="1350.9" y1="1640.5" x2="1291.8" y2="1640.5"/>
	<g>
		<line class="st1" x1="1351" y1="1640" x2="1351" y2="1578.2"/>
		<path class="st4" d="M1289.9,1639.8c0-33.5,27.2-60.7,60.7-60.7"/>
	</g>
</g>
<text transform="matrix(1 0 0 1 1302.452 1416.9301)" class="st2 st6">男更衣室</text>
<text transform="matrix(1 0 0 1 1123.452 1416.9301)" class="st2 st6">女更衣室</text>
<g>
	<path class="st1" d="M716.5,1399.9h31.1c7.2,0,13,5.8,13,13v903.8c0,7.1-5.8,13-13,13H173.1c-7.2,0-13-5.9-13-13v-903.8
		c0-7.2,5.8-13,13-13h487.5"/>
</g>
<g>
	<g>
		<path class="st1" d="M1032.1,1472.5c0,2.2-1.8,4-4,4h-29c-2.2,0-4-1.8-4-4v-8c0-2.2,1.8-4,4-4h29c2.2,0,4,1.8,4,4V1472.5z"/>
	</g>
	<g>
		<path class="st1" d="M1032.1,1493c0,2.2-1.8,4-4,4h-29c-2.2,0-4-1.8-4-4v-8c0-2.2,1.8-4,4-4h29c2.2,0,4,1.8,4,4V1493z"/>
	</g>
	<g>
		<path class="st1" d="M1032.1,1513.5c0,2.2-1.8,4-4,4h-29c-2.2,0-4-1.8-4-4v-8c0-2.2,1.8-4,4-4h29c2.2,0,4,1.8,4,4V1513.5z"/>
	</g>
	<g>
		<path class="st1" d="M1032.1,1534c0,2.2-1.8,4-4,4h-29c-2.2,0-4-1.8-4-4v-8c0-2.2,1.8-4,4-4h29c2.2,0,4,1.8,4,4V1534z"/>
	</g>
	<g>
		<path class="st1" d="M1032.1,1554.5c0,2.2-1.8,4-4,4h-29c-2.2,0-4-1.8-4-4v-8c0-2.2,1.8-4,4-4h29c2.2,0,4,1.8,4,4V1554.5z"/>
	</g>
	<g>
		<path class="st1" d="M1032.1,1575c0,2.2-1.8,4-4,4h-29c-2.2,0-4-1.8-4-4v-8c0-2.2,1.8-4,4-4h29c2.2,0,4,1.8,4,4V1575z"/>
	</g>
	<g>
		<path class="st1" d="M1032.1,1595.5c0,2.2-1.8,4-4,4h-29c-2.2,0-4-1.8-4-4v-8c0-2.2,1.8-4,4-4h29c2.2,0,4,1.8,4,4V1595.5z"/>
	</g>
	<g>
		<path class="st1" d="M1032.1,1616c0,2.2-1.8,4-4,4h-29c-2.2,0-4-1.8-4-4v-8c0-2.2,1.8-4,4-4h29c2.2,0,4,1.8,4,4V1616z"/>
	</g>
	<g>
		<path class="st1" d="M1032.1,1636.5c0,2.2-1.8,4-4,4h-29c-2.2,0-4-1.8-4-4v-8c0-2.2,1.8-4,4-4h29c2.2,0,4,1.8,4,4V1636.5z"/>
	</g>
</g>
<g>
	<g>
		<path class="st1" d="M802,1416.3c0,2.2-1.8,4-4,4h-29c-2.2,0-4-1.8-4-4v-8c0-2.2,1.8-4,4-4h29c2.2,0,4,1.8,4,4V1416.3z"/>
	</g>
	<g>
		<path class="st1" d="M802,1436.8c0,2.2-1.8,4-4,4h-29c-2.2,0-4-1.8-4-4v-8c0-2.2,1.8-4,4-4h29c2.2,0,4,1.8,4,4V1436.8z"/>
	</g>
	<g>
		<path class="st1" d="M802,1457.3c0,2.2-1.8,4-4,4h-29c-2.2,0-4-1.8-4-4v-8c0-2.2,1.8-4,4-4h29c2.2,0,4,1.8,4,4V1457.3z"/>
	</g>
	<g>
		<path class="st1" d="M802,1477.8c0,2.2-1.8,4-4,4h-29c-2.2,0-4-1.8-4-4v-8c0-2.2,1.8-4,4-4h29c2.2,0,4,1.8,4,4V1477.8z"/>
	</g>
	<g>
		<path class="st1" d="M802,1498.3c0,2.2-1.8,4-4,4h-29c-2.2,0-4-1.8-4-4v-8c0-2.2,1.8-4,4-4h29c2.2,0,4,1.8,4,4V1498.3z"/>
	</g>
	<g>
		<path class="st1" d="M802,1518.8c0,2.2-1.8,4-4,4h-29c-2.2,0-4-1.8-4-4v-8c0-2.2,1.8-4,4-4h29c2.2,0,4,1.8,4,4V1518.8z"/>
	</g>
	<g>
		<path class="st1" d="M802,1539.3c0,2.2-1.8,4-4,4h-29c-2.2,0-4-1.8-4-4v-8c0-2.2,1.8-4,4-4h29c2.2,0,4,1.8,4,4V1539.3z"/>
	</g>
	<g>
		<path class="st1" d="M802,1559.8c0,2.2-1.8,4-4,4h-29c-2.2,0-4-1.8-4-4v-8c0-2.2,1.8-4,4-4h29c2.2,0,4,1.8,4,4V1559.8z"/>
	</g>
	<g>
		<path class="st1" d="M802,1580.3c0,2.2-1.8,4-4,4h-29c-2.2,0-4-1.8-4-4v-8c0-2.2,1.8-4,4-4h29c2.2,0,4,1.8,4,4V1580.3z"/>
	</g>
	<g>
		<path class="st1" d="M802,1600.8c0,2.2-1.8,4-4,4h-29c-2.2,0-4-1.8-4-4v-8c0-2.2,1.8-4,4-4h29c2.2,0,4,1.8,4,4V1600.8z"/>
	</g>
	<g>
		<path class="st1" d="M802,1621.3c0,2.2-1.8,4-4,4h-29c-2.2,0-4-1.8-4-4v-8c0-2.2,1.8-4,4-4h29c2.2,0,4,1.8,4,4V1621.3z"/>
	</g>
	<g>
		<path class="st1" d="M802,1641.8c0,2.2-1.8,4-4,4h-29c-2.2,0-4-1.8-4-4v-8c0-2.2,1.8-4,4-4h29c2.2,0,4,1.8,4,4V1641.8z"/>
	</g>
</g>
<text transform="matrix(1 0 0 1 377.2128 1873.9301)" class="st2 st3">大会议室</text>
<g>
	<line class="st5" x1="720.9" y1="1399.9" x2="661.9" y2="1399.9"/>
	<g>
		<line class="st1" x1="721" y1="1400.5" x2="721" y2="1462.2"/>
		<path class="st4" d="M659.9,1400.7c0,33.5,27.2,60.7,60.7,60.7"/>
	</g>
</g>
<g>
	<path class="st7" d="M617,1264.3"/>
</g>
<g>
	<path class="st1" d="M702.9,990.9v264.8c0,7.1-5.8,13-13,13h-27.9"/>
</g>
<g>
	<line class="st1" x1="760.4" y1="386.2" x2="760.4" y2="978.4"/>
</g>
<g>
	<path class="st1" d="M599.7,1269.8H173.4c-7.2,0-13-5.9-13-13V174.7c0-7.1,5.8-13,13-13h574.1c7.2,0,13,5.9,13,13v153.1"/>
</g>
<g>
	<path class="st7" d="M649.6,1264.3"/>
</g>
<g>
	<line class="st5" x1="757.6" y1="1395.3" x2="757.6" y2="1336.3"/>
	<g>
		<line class="st1" x1="757.1" y1="1395.4" x2="695.3" y2="1395.4"/>
		<path class="st4" d="M756.8,1334.3c-33.5,0-60.7,27.2-60.7,60.7"/>
	</g>
</g>
<g>
	<line class="st5" x1="757.6" y1="1270.4" x2="757.6" y2="1329.5"/>
	<g>
		<line class="st1" x1="757.1" y1="1270.3" x2="695.3" y2="1270.3"/>
		<path class="st4" d="M756.8,1331.4c-33.5,0-60.7-27.2-60.7-60.7"/>
	</g>
</g>
<text transform="matrix(1 0 0 1 2008.7128 1262.4301)" class="st2 st3">大会议室</text>
<text transform="matrix(1 0 0 1 1155.7128 1152.9301)" class="st2 st3">会议室</text>
<g>
	<line class="st1" x1="1419.6" y1="428.9" x2="1419.6" y2="654.4"/>
</g>
<g>
	<path class="st1" d="M1419.6,714.8c0,0,0,5.8,0,12.9s-5.9,12.9-13,12.9h-389.2c-7.2,0-13-5.8-13-13V175.4c0-7.2,5.8-13,13-13h389.2
		c7.1,0,13,5.8,13,13v193"/>
</g>
<line class="st1" x1="1005.6" y1="455.6" x2="1416.3" y2="455.6"/>
<line class="st1" x1="459.5" y1="441.4" x2="459.5" y2="162.4"/>
<line class="st1" x1="459.5" y1="510.9" x2="459.5" y2="502"/>
<text transform="matrix(1 0 0 1 1113.7128 334.4301)" class="st2 st3">部门经理室</text>
<text transform="matrix(1 0 0 1 1163.7128 596.9301)" class="st2 st3">洽谈室</text>
<line class="st1" x1="734.7" y1="513.1" x2="760.2" y2="513.1"/>
<line class="st1" x1="163.1" y1="513.1" x2="673.5" y2="513.1"/>
<text transform="matrix(1 0 0 1 395.2128 862.43)" class="st2 st3">演播厅</text>
<text transform="matrix(1 0 0 1 554.2128 365.4301)" class="st2 st3">化妆间</text>
<text transform="matrix(1 0 0 1 253.7128 365.4301)" class="st2 st3">控制室</text>
<g>
	<line class="st5" x1="2729.8" y1="1640.4" x2="2670.7" y2="1640.4"/>
	<g>
		<line class="st1" x1="2729.9" y1="1641" x2="2729.9" y2="1702.7"/>
		<path class="st4" d="M2668.7,1641.2c0,33.5,27.2,60.7,60.7,60.7"/>
	</g>
</g>
<g>
	<line class="st5" x1="1478" y1="1640.2" x2="1537.1" y2="1640.2"/>
	<g>
		<line class="st1" x1="1477.9" y1="1640.8" x2="1477.9" y2="1702.5"/>
		<path class="st4" d="M1539,1641c0,33.5-27.2,60.7-60.7,60.7"/>
	</g>
</g>
<g>
	<line class="st5" x1="2729.8" y1="877" x2="2670.7" y2="877"/>
	<g>
		<line class="st1" x1="2729.9" y1="876.5" x2="2729.9" y2="814.7"/>
		<path class="st4" d="M2668.7,876.3c0-33.5,27.2-60.7,60.7-60.7"/>
	</g>
</g>
<g>
	<line class="st5" x1="1478" y1="877.2" x2="1537.1" y2="877.2"/>
	<g>
		<line class="st1" x1="1477.9" y1="876.7" x2="1477.9" y2="814.9"/>
		<path class="st4" d="M1539,876.5c0-33.5-27.2-60.7-60.7-60.7"/>
	</g>
</g>
<g>
	<line class="st5" x1="1035.9" y1="1374.3" x2="1035.9" y2="1315.3"/>
	<g>
		<line class="st1" x1="1036.4" y1="1374.4" x2="1098.2" y2="1374.4"/>
		<path class="st4" d="M1036.6,1313.3c33.5,0,60.7,27.2,60.7,60.7"/>
	</g>
</g>
<g>
	<line class="st5" x1="660.4" y1="1269.5" x2="601.3" y2="1269.5"/>
	<g>
		<line class="st1" x1="660.5" y1="1269" x2="660.5" y2="1207.2"/>
		<path class="st4" d="M599.4,1268.8c0-33.5,27.2-60.7,60.7-60.7"/>
	</g>
</g>
<g>
	<line class="st5" x1="734.4" y1="513.2" x2="675.3" y2="513.2"/>
	<g>
		<line class="st1" x1="734.5" y1="513.8" x2="734.5" y2="575.5"/>
		<path class="st4" d="M673.4,514c0,33.5,27.2,60.7,60.7,60.7"/>
	</g>
</g>
<g>
	<line class="st5" x1="760.6" y1="325.4" x2="760.6" y2="384.5"/>
	<g>
		<line class="st1" x1="760.1" y1="325.3" x2="698.3" y2="325.3"/>
		<path class="st4" d="M759.8,386.4c-33.5,0-60.7-27.2-60.7-60.7"/>
	</g>
</g>
<line class="st1" x1="932.5" y1="740.6" x2="1015" y2="740.6"/>
<line class="st1" x1="762.1" y1="740.6" x2="825.1" y2="740.6"/>
<g>
	<g>
		<line class="st5" x1="932.4" y1="740.7" x2="873.3" y2="740.7"/>
		<g>
			<line class="st1" x1="932.5" y1="741.3" x2="932.5" y2="803.1"/>
			<path class="st4" d="M871.4,741.5c0,33.5,27.2,60.7,60.7,60.7"/>
		</g>
	</g>
	<g>
		<line class="st5" x1="807.5" y1="740.7" x2="866.5" y2="740.7"/>
		<g>
			<line class="st1" x1="807.4" y1="741.3" x2="807.4" y2="803.1"/>
			<path class="st4" d="M868.5,741.5c0,33.5-27.2,60.7-60.7,60.7"/>
		</g>
	</g>
</g>
<g>
	<path class="st1" d="M743.3,1027.5c0,2.2-1.8,4-4,4h-29c-2.2,0-4-1.8-4-4v-8c0-2.2,1.8-4,4-4h29c2.2,0,4,1.8,4,4V1027.5z"/>
</g>
<g>
	<path class="st1" d="M743.3,1049.5c0,2.2-1.8,4-4,4h-29c-2.2,0-4-1.8-4-4v-8c0-2.2,1.8-4,4-4h29c2.2,0,4,1.8,4,4V1049.5z"/>
</g>
<g>
	<path class="st1" d="M743.3,1071.5c0,2.2-1.8,4-4,4h-29c-2.2,0-4-1.8-4-4v-8c0-2.2,1.8-4,4-4h29c2.2,0,4,1.8,4,4V1071.5z"/>
</g>
<g>
	<path class="st1" d="M743.3,1093.5c0,2.2-1.8,4-4,4h-29c-2.2,0-4-1.8-4-4v-8c0-2.2,1.8-4,4-4h29c2.2,0,4,1.8,4,4V1093.5z"/>
</g>
<g>
	<path class="st1" d="M743.3,1115.5c0,2.2-1.8,4-4,4h-29c-2.2,0-4-1.8-4-4v-8c0-2.2,1.8-4,4-4h29c2.2,0,4,1.8,4,4V1115.5z"/>
</g>
<g>
	<path class="st1" d="M743.3,1137.5c0,2.2-1.8,4-4,4h-29c-2.2,0-4-1.8-4-4v-8c0-2.2,1.8-4,4-4h29c2.2,0,4,1.8,4,4V1137.5z"/>
</g>
<g>
	<line class="st5" x1="459.6" y1="502.3" x2="459.6" y2="443.3"/>
	<g>
		<line class="st1" x1="459.1" y1="502.4" x2="397.3" y2="502.4"/>
		<path class="st4" d="M458.8,441.3c-33.5,0-60.7,27.2-60.7,60.7"/>
	</g>
</g>
<g>
	<line class="st5" x1="1419.6" y1="715.3" x2="1419.6" y2="656.3"/>
	<g>
		<line class="st1" x1="1419.1" y1="715.4" x2="1357.3" y2="715.4"/>
		<path class="st4" d="M1418.8,654.3c-33.5,0-60.7,27.2-60.7,60.7"/>
	</g>
</g>
<g>
	<line class="st5" x1="1419.6" y1="428.8" x2="1419.6" y2="369.8"/>
	<g>
		<line class="st1" x1="1419.1" y1="428.9" x2="1357.3" y2="428.9"/>
		<path class="st4" d="M1418.8,367.8c-33.5,0-60.7,27.2-60.7,60.7"/>
	</g>
</g>
<g>
	<path class="st1" d="M3042.5,562.5c0,0,0-4.6,0-10.3c0-5.7,5.9-10.3,13-10.3h340.5c7.2,0,13,5.8,13,13v302.7c0,7.2-5.8,13-13,13
		h-340.5c-7.1,0-13-5.8-13-13V623.8"/>
</g>
<g>
	<path class="st1" d="M2810.5,541.4c0,0-5,0-11.2,0c-6.1,0-11.2-5.8-11.2-13V174.7c0-7.2,5.9-13,13-13h594.7c7.1,0,13,5.8,13,13
		v353.7c0,7.2-5.9,13-13,13h-524.4"/>
</g>
<text transform="matrix(1 0 0 1 3124.7444 716.3895)" class="st2 st3">会议备品间</text>
<text transform="matrix(1 0 0 1 3006.5779 363.5562)" class="st2 st3">高端接待室</text>
<g>
	<line class="st5" x1="2810.5" y1="541.5" x2="2869.6" y2="541.5"/>
	<g>
		<line class="st1" x1="2810.4" y1="541" x2="2810.4" y2="479.2"/>
		<path class="st4" d="M2871.5,540.8c0-33.5-27.2-60.7-60.7-60.7"/>
	</g>
</g>
<g>
	<line class="st5" x1="3042.5" y1="562.9" x2="3042.5" y2="622"/>
	<g>
		<line class="st1" x1="3043" y1="562.8" x2="3104.8" y2="562.8"/>
		<path class="st4" d="M3043.2,623.9c33.5,0,60.7-27.2,60.7-60.7"/>
	</g>
</g>
<g>
	<line class="st1" x1="3042" y1="1996.7" x2="3042" y2="1959.4"/>
</g>
<g>
	<path class="st1" d="M3042,1898.1v-272.5c0-7.2,5.9-13,13-13h340.5c7.2,0,13,5.8,13,13v691.2c0,7.2-5.8,13-13,13H3055
		c-7.1,0-13-5.8-13-13v-258.9"/>
</g>
<line class="st1" x1="3043.5" y1="1978.6" x2="3408.1" y2="1978.6"/>
<text transform="matrix(1 0 0 1 3129.2444 1815.8895)" class="st2 st3">部门经理室</text>
<text transform="matrix(1 0 0 1 3129.2444 2168.3894)" class="st2 st3">部门经理室</text>
<g>
	<line class="st5" x1="3042.2" y1="1959.3" x2="3042.2" y2="1900.3"/>
	<g>
		<line class="st1" x1="3042.7" y1="1959.4" x2="3104.5" y2="1959.4"/>
		<path class="st4" d="M3043,1898.3c33.5,0,60.7,27.2,60.7,60.7"/>
	</g>
</g>
<g>
	<line class="st5" x1="3042.2" y1="1996.9" x2="3042.2" y2="2056"/>
	<g>
		<line class="st1" x1="3042.7" y1="1996.8" x2="3104.5" y2="1996.8"/>
		<path class="st4" d="M3043,2057.9c33.5,0,60.7-27.2,60.7-60.7"/>
	</g>
</g>
<line class="st1" x1="3409" y1="1192.3" x2="3409" y2="852.7"/>
<line class="st1" x1="3409" y1="1621.5" x2="3409" y2="1317.5"/>
<g>
	<line class="st5" x1="3408.9" y1="1317.3" x2="3408.9" y2="1258.3"/>
	<g>
		<line class="st1" x1="3408.3" y1="1317.4" x2="3346.6" y2="1317.4"/>
		<path class="st4" d="M3408.1,1256.3c-33.5,0-60.7,27.2-60.7,60.7"/>
	</g>
</g>
<g>
	<line class="st5" x1="3408.9" y1="1192.4" x2="3408.9" y2="1251.5"/>
	<g>
		<line class="st1" x1="3408.3" y1="1192.3" x2="3346.6" y2="1192.3"/>
		<path class="st4" d="M3408.1,1253.4c-33.5,0-60.7-27.2-60.7-60.7"/>
	</g>
</g>
<g>
	<path class="st8" d="M2803.1,2289.2c0,7.1-5.9,13-13,13h-34c-7.2,0-13-5.9-13-13v-34c0-7.1,5.8-13,13-13h34c7.1,0,13,5.9,13,13
		V2289.2z"/>
	<path class="st9" d="M2803.1,2289.2c0,7.1-5.9,13-13,13h-34c-7.2,0-13-5.9-13-13v-34c0-7.1,5.8-13,13-13h34c7.1,0,13,5.9,13,13
		V2289.2z"/>
</g>
<g>
	<g>
		<path class="st9" d="M2647,2224.2c0,7.1-5.9,13-13,13h-102c-7.2,0-13-5.9-13-13v-42c0-7.1,5.8-13,13-13h102c7.1,0,13,5.9,13,13
			V2224.2z"/>
	</g>
	<g>
		<path id="XMLID_919_" class="st10" d="M2600.5,2300.1h-35.1v-26.6c0-11.7,35.1-11.7,35.1,0V2300.1z"/>
		<rect id="XMLID_918_" x="2565.5" y="2300.1" class="st10" width="35.1" height="6"/>
	</g>
	<g>
		<path id="XMLID_917_" class="st10" d="M2625.5,2107.1h-35.1v26.6c0,11.7,35.1,11.7,35.1,0V2107.1z"/>
		<rect id="XMLID_916_" x="2590.5" y="2101.1" class="st10" width="35.1" height="6"/>
	</g>
	<g>
		<path id="XMLID_915_" class="st10" d="M2572.5,2107.1h-35.1v26.6c0,11.7,35.1,11.7,35.1,0V2107.1z"/>
		<rect id="XMLID_914_" x="2537.5" y="2101.1" class="st10" width="35.1" height="6"/>
	</g>
</g>
<g>
	<g>
		<g id="XMLID_912_">
			<path class="st9" d="M2519.2,1924.8c0,7.2,5.8,13,13,13h28c7.1,0,12.9-5.2,12.8-11.5c0,0,0,0-3.2-12.9
				c-4.5-18-12.2-37.1-0.9-50.6c12-14.4,31.4-5.7,48.8-2.3c14.7,2.9,14.7,2.9,14.7,2.9c6.4,0.9,11.6-4.2,11.6-11.4v-26
				c0-7.1-5.8-13-13-13h-98.8c-7.2,0-13,5.9-13,13V1924.8z"/>
		</g>
		<g>
			<path id="XMLID_911_" class="st10" d="M2624.8,1891l-24.8,24.8l-18.8-18.8c-8.3-8.3,16.5-33.1,24.8-24.8L2624.8,1891z"/>
			
				<rect id="XMLID_910_" x="2597" y="1902.5" transform="matrix(0.7071 -0.7071 0.7071 0.7071 -581.6279 2406.8474)" class="st10" width="35.1" height="6"/>
		</g>
	</g>
	<g>
		<g id="XMLID_908_">
			<path class="st9" d="M2519.2,1952c0-7.1,5.8-13,13-13h28c7.1,0,12.9,5.2,12.8,11.5c0,0,0,0-3.2,12.9c-4.5,18-12.2,37.1-0.9,50.6
				c12,14.4,31.4,5.7,48.8,2.3c14.7-2.9,14.7-2.9,14.7-2.9c6.4-0.9,11.6,4.2,11.6,11.4v26c0,7.1-5.8,13-13,13h-98.8
				c-7.2,0-13-5.9-13-13V1952z"/>
		</g>
		<g>
			<path id="XMLID_907_" class="st10" d="M2624.8,1985.7l-24.8-24.8l-18.8,18.8c-8.3,8.3,16.5,33.1,24.8,24.8L2624.8,1985.7z"/>
			
				<rect id="XMLID_906_" x="2611.5" y="1953.7" transform="matrix(0.7071 -0.7071 0.7071 0.7071 -628.0941 2426.0942)" class="st10" width="6" height="35.1"/>
		</g>
	</g>
</g>
<g>
	<g>
		<g id="XMLID_904_">
			<path class="st9" d="M2518.5,1924.8c0,7.2-5.8,13-13,13h-28c-7.1,0-12.9-5.2-12.8-11.5c0,0,0,0,3.2-12.9
				c4.5-18,12.2-37.1,0.9-50.6c-12-14.4-31.4-5.7-48.8-2.3c-14.7,2.9-14.7,2.9-14.7,2.9c-6.4,0.9-11.6-4.2-11.6-11.4v-26
				c0-7.1,5.8-13,13-13h98.8c7.2,0,13,5.9,13,13V1924.8z"/>
		</g>
		<g>
			<path id="XMLID_903_" class="st10" d="M2412.9,1891l24.8,24.8l18.8-18.8c8.3-8.3-16.5-33.1-24.8-24.8L2412.9,1891z"/>
			
				<rect id="XMLID_902_" x="2420.2" y="1888" transform="matrix(0.7071 -0.7071 0.7071 0.7071 -637.6609 2271.5718)" class="st10" width="6" height="35.1"/>
		</g>
	</g>
	<g>
		<g id="XMLID_900_">
			<path class="st9" d="M2518.5,1952c0-7.1-5.8-13-13-13h-28c-7.1,0-12.9,5.2-12.8,11.5c0,0,0,0,3.2,12.9c4.5,18,12.2,37.1,0.9,50.6
				c-12,14.4-31.4,5.7-48.8,2.3c-14.7-2.9-14.7-2.9-14.7-2.9c-6.4-0.9-11.6,4.2-11.6,11.4v26c0,7.1,5.8,13,13,13h98.8
				c7.2,0,13-5.9,13-13V1952z"/>
		</g>
		<g>
			<path id="XMLID_899_" class="st10" d="M2412.9,1985.7l24.8-24.8l18.8,18.8c8.3,8.3-16.5,33.1-24.8,24.8L2412.9,1985.7z"/>
			
				<rect id="XMLID_898_" x="2405.7" y="1968.2" transform="matrix(0.7071 -0.7071 0.7071 0.7071 -684.1271 2290.8186)" class="st10" width="35.1" height="6"/>
		</g>
	</g>
</g>
<g>
	<g>
		<g id="XMLID_896_">
			<path class="st9" d="M2518.5,2176.8c0,7.1-5.8,13-13,13h-28c-7.1,0-12.9-5.2-12.8-11.5c0,0,0,0,3.2-12.9
				c4.5-18,12.2-37.1,0.9-50.6c-12-14.4-31.4-5.7-48.8-2.3c-14.7,2.9-14.7,2.9-14.7,2.9c-6.4,0.9-11.6-4.2-11.6-11.4v-26
				c0-7.2,5.8-13,13-13h98.8c7.2,0,13,5.8,13,13V2176.8z"/>
		</g>
		<g>
			<path id="XMLID_895_" class="st10" d="M2412.9,2143l24.8,24.8l18.8-18.8c8.3-8.3-16.5-33.1-24.8-24.8L2412.9,2143z"/>
			
				<rect id="XMLID_894_" x="2420.2" y="2140" transform="matrix(0.7071 -0.7071 0.7071 0.7071 -815.8518 2345.3809)" class="st10" width="6" height="35.1"/>
		</g>
	</g>
	<g>
		<g id="XMLID_892_">
			<path class="st9" d="M2518.5,2204c0-7.2-5.8-13-13-13h-28c-7.1,0-12.9,5.2-12.8,11.5c0,0,0,0,3.2,12.9c4.5,18,12.2,37.1,0.9,50.6
				c-12,14.4-31.4,5.7-48.8,2.3c-14.7-2.9-14.7-2.9-14.7-2.9c-6.4-0.9-11.6,4.2-11.6,11.4v26c0,7.1,5.8,13,13,13h98.8
				c7.2,0,13-5.9,13-13V2204z"/>
		</g>
		<g>
			<path id="XMLID_891_" class="st10" d="M2412.9,2237.7l24.8-24.8l18.8,18.8c8.3,8.3-16.5,33.1-24.8,24.8L2412.9,2237.7z"/>
			
				<rect id="XMLID_890_" x="2405.7" y="2220.2" transform="matrix(0.7071 -0.7071 0.7071 0.7071 -862.318 2364.6277)" class="st10" width="35.1" height="6"/>
		</g>
	</g>
</g>
<g>
	<g id="XMLID_888_">
		<path class="st9" d="M2181.7,1924.8c0,7.2,5.8,13,13,13h28c7.1,0,12.9-5.2,12.8-11.5c0,0,0,0-3.2-12.9c-4.5-18-12.2-37.1-0.9-50.6
			c12-14.4,31.4-5.7,48.8-2.3c14.7,2.9,14.7,2.9,14.7,2.9c6.4,0.9,11.6-4.2,11.6-11.4v-26c0-7.1-5.8-13-13-13h-98.8
			c-7.2,0-13,5.9-13,13V1924.8z"/>
	</g>
	<g>
		<path id="XMLID_887_" class="st10" d="M2287.3,1891l-24.8,24.8l-18.8-18.8c-8.3-8.3,16.5-33.1,24.8-24.8L2287.3,1891z"/>
		
			<rect id="XMLID_886_" x="2259.5" y="1902.5" transform="matrix(0.7071 -0.7071 0.7071 0.7071 -680.4794 2168.1987)" class="st10" width="35.1" height="6"/>
	</g>
</g>
<g>
	<g id="XMLID_884_">
		<path class="st9" d="M2181.7,1952c0-7.1,5.8-13,13-13h28c7.1,0,12.9,5.2,12.8,11.5c0,0,0,0-3.2,12.9c-4.5,18-12.2,37.1-0.9,50.6
			c12,14.4,31.4,5.7,48.8,2.3c14.7-2.9,14.7-2.9,14.7-2.9c6.4-0.9,11.6,4.2,11.6,11.4v26c0,7.1-5.8,13-13,13h-98.8
			c-7.2,0-13-5.9-13-13V1952z"/>
	</g>
	<g>
		<path id="XMLID_883_" class="st10" d="M2287.3,1985.7l-24.8-24.8l-18.8,18.8c-8.3,8.3,16.5,33.1,24.8,24.8L2287.3,1985.7z"/>
		
			<rect id="XMLID_882_" x="2274" y="1953.7" transform="matrix(0.7071 -0.7071 0.7071 0.7071 -726.9456 2187.4458)" class="st10" width="6" height="35.1"/>
	</g>
</g>
<g>
	<g>
		<g id="XMLID_880_">
			<path class="st9" d="M2181.7,2176.8c0,7.1,5.8,13,13,13h28c7.1,0,12.9-5.2,12.8-11.5c0,0,0,0-3.2-12.9
				c-4.5-18-12.2-37.1-0.9-50.6c12-14.4,31.4-5.7,48.8-2.3c14.7,2.9,14.7,2.9,14.7,2.9c6.4,0.9,11.6-4.2,11.6-11.4v-26
				c0-7.2-5.8-13-13-13h-98.8c-7.2,0-13,5.8-13,13V2176.8z"/>
		</g>
		<g>
			<path id="XMLID_879_" class="st10" d="M2287.3,2143l-24.8,24.8l-18.8-18.8c-8.3-8.3,16.5-33.1,24.8-24.8L2287.3,2143z"/>
			
				<rect id="XMLID_878_" x="2259.5" y="2154.5" transform="matrix(0.7071 -0.7071 0.7071 0.7071 -858.6703 2242.0078)" class="st10" width="35.1" height="6"/>
		</g>
	</g>
	<g>
		<g id="XMLID_876_">
			<path class="st9" d="M2181.7,2204c0-7.2,5.8-13,13-13h28c7.1,0,12.9,5.2,12.8,11.5c0,0,0,0-3.2,12.9c-4.5,18-12.2,37.1-0.9,50.6
				c12,14.4,31.4,5.7,48.8,2.3c14.7-2.9,14.7-2.9,14.7-2.9c6.4-0.9,11.6,4.2,11.6,11.4v26c0,7.1-5.8,13-13,13h-98.8
				c-7.2,0-13-5.9-13-13V2204z"/>
		</g>
		<g>
			<path id="XMLID_875_" class="st10" d="M2287.3,2237.7l-24.8-24.8l-18.8,18.8c-8.3,8.3,16.5,33.1,24.8,24.8L2287.3,2237.7z"/>
			
				<rect id="XMLID_874_" x="2274" y="2205.7" transform="matrix(0.7071 -0.7071 0.7071 0.7071 -905.1365 2261.2549)" class="st10" width="6" height="35.1"/>
		</g>
	</g>
</g>
<g>
	<g>
		<g>
			<path class="st11" d="M2558,1799c0,7.2-5.8,13-13,13h-53.6c-7.1,0-13-5.8-13-13v-11.4c0-7.2,5.9-13,13-13h53.6
				c7.2,0,13,5.8,13,13V1799z"/>
			<path class="st9" d="M2558,1799c0,7.2-5.8,13-13,13h-53.6c-7.1,0-13-5.8-13-13v-11.4c0-7.2,5.9-13,13-13h53.6c7.2,0,13,5.8,13,13
				V1799z"/>
		</g>
		<line class="st12" x1="2481.9" y1="1779.2" x2="2554.5" y2="1807.4"/>
	</g>
	<g>
		<g>
			<path class="st11" d="M2477.5,1799c0,7.2-5.8,13-13,13h-53.6c-7.1,0-13-5.8-13-13v-11.4c0-7.2,5.9-13,13-13h53.6
				c7.2,0,13,5.8,13,13V1799z"/>
			<path class="st9" d="M2477.5,1799c0,7.2-5.8,13-13,13h-53.6c-7.1,0-13-5.8-13-13v-11.4c0-7.2,5.9-13,13-13h53.6
				c7.2,0,13,5.8,13,13V1799z"/>
		</g>
		<line class="st12" x1="2401.4" y1="1779.2" x2="2474" y2="1807.4"/>
	</g>
	<g>
		<g>
			<path class="st11" d="M2638.5,1799c0,7.2-5.8,13-13,13h-53.6c-7.1,0-13-5.8-13-13v-11.4c0-7.2,5.9-13,13-13h53.6
				c7.2,0,13,5.8,13,13V1799z"/>
			<path class="st9" d="M2638.5,1799c0,7.2-5.8,13-13,13h-53.6c-7.1,0-13-5.8-13-13v-11.4c0-7.2,5.9-13,13-13h53.6
				c7.2,0,13,5.8,13,13V1799z"/>
		</g>
		<line class="st12" x1="2562.4" y1="1779.2" x2="2635" y2="1807.4"/>
	</g>
</g>
<g>
	<g>
		<path class="st9" d="M1714.7,2224.7c0,7.1,5.8,13,13,13h102c7.1,0,13-5.9,13-13v-42c0-7.1-5.9-13-13-13h-102c-7.2,0-13,5.9-13,13
			V2224.7z"/>
	</g>
	<g>
		<path id="XMLID_873_" class="st10" d="M1761.2,2300.6h35.1V2274c0-11.7-35.1-11.7-35.1,0V2300.6z"/>
		<rect id="XMLID_872_" x="1761.2" y="2300.6" class="st10" width="35.1" height="6"/>
	</g>
	<g>
		<path id="XMLID_871_" class="st10" d="M1736.2,2107.6h35.1v26.6c0,11.7-35.1,11.7-35.1,0V2107.6z"/>
		<rect id="XMLID_870_" x="1736.2" y="2101.6" class="st10" width="35.1" height="6"/>
	</g>
	<g>
		<path id="XMLID_869_" class="st10" d="M1789.2,2107.6h35.1v26.6c0,11.7-35.1,11.7-35.1,0V2107.6z"/>
		<rect id="XMLID_868_" x="1789.2" y="2101.6" class="st10" width="35.1" height="6"/>
	</g>
</g>
<g>
	<g>
		<g id="XMLID_866_">
			<path class="st9" d="M1842.5,1925.3c0,7.2-5.8,13-13,13h-28c-7.2,0-12.9-5.2-12.8-11.5c0,0,0,0,3.2-12.9
				c4.5-18,12.2-37.1,0.9-50.6c-12-14.4-31.4-5.7-48.8-2.3c-14.7,2.9-14.7,2.9-14.7,2.9c-6.4,0.9-11.6-4.2-11.6-11.4v-26
				c0-7.1,5.9-13,13-13h98.8c7.2,0,13,5.9,13,13V1925.3z"/>
		</g>
		<g>
			<path id="XMLID_865_" class="st10" d="M1736.9,1891.5l24.8,24.8l18.8-18.8c8.3-8.3-16.5-33.1-24.8-24.8L1736.9,1891.5z"/>
			
				<rect id="XMLID_864_" x="1744.2" y="1888.5" transform="matrix(0.7071 -0.7071 0.7071 0.7071 -836.0103 1793.7139)" class="st10" width="6" height="35.1"/>
		</g>
	</g>
	<g>
		<g id="XMLID_862_">
			<path class="st9" d="M1842.5,1952.5c0-7.1-5.8-13-13-13h-28c-7.2,0-12.9,5.2-12.8,11.5c0,0,0,0,3.2,12.9
				c4.5,18,12.2,37.1,0.9,50.6c-12,14.4-31.4,5.7-48.8,2.3c-14.7-2.9-14.7-2.9-14.7-2.9c-6.4-0.9-11.6,4.2-11.6,11.4v26
				c0,7.1,5.9,13,13,13h98.8c7.2,0,13-5.9,13-13V1952.5z"/>
		</g>
		<g>
			<path id="XMLID_861_" class="st10" d="M1736.9,1986.2l24.8-24.8l18.8,18.8c8.3,8.3-16.5,33.1-24.8,24.8L1736.9,1986.2z"/>
			
				<rect id="XMLID_860_" x="1729.7" y="1968.7" transform="matrix(0.7071 -0.7071 0.7071 0.7071 -882.4765 1812.9608)" class="st10" width="35.1" height="6"/>
		</g>
	</g>
</g>
<g>
	<g>
		<g id="XMLID_858_">
			<path class="st9" d="M1843.2,1925.3c0,7.2,5.9,13,13,13h28c7.2,0,12.9-5.2,12.8-11.5c0,0,0,0-3.2-12.9
				c-4.5-18-12.2-37.1-0.9-50.6c12-14.4,31.4-5.7,48.8-2.3c14.7,2.9,14.7,2.9,14.7,2.9c6.4,0.9,11.6-4.2,11.6-11.4v-26
				c0-7.1-5.8-13-13-13h-98.8c-7.1,0-13,5.9-13,13V1925.3z"/>
		</g>
		<g>
			<path id="XMLID_857_" class="st10" d="M1948.8,1891.5l-24.8,24.8l-18.8-18.8c-8.3-8.3,16.5-33.1,24.8-24.8L1948.8,1891.5z"/>
			
				<rect id="XMLID_856_" x="1921" y="1903" transform="matrix(0.7071 -0.7071 0.7071 0.7071 -779.9773 1928.9895)" class="st10" width="35.1" height="6"/>
		</g>
	</g>
	<g>
		<g id="XMLID_854_">
			<path class="st9" d="M1843.2,1952.5c0-7.1,5.9-13,13-13h28c7.2,0,12.9,5.2,12.8,11.5c0,0,0,0-3.2,12.9
				c-4.5,18-12.2,37.1-0.9,50.6c12,14.4,31.4,5.7,48.8,2.3c14.7-2.9,14.7-2.9,14.7-2.9c6.4-0.9,11.6,4.2,11.6,11.4v26
				c0,7.1-5.8,13-13,13h-98.8c-7.1,0-13-5.9-13-13V1952.5z"/>
		</g>
		<g>
			<path id="XMLID_853_" class="st10" d="M1948.8,1986.2l-24.8-24.8l-18.8,18.8c-8.3,8.3,16.5,33.1,24.8,24.8L1948.8,1986.2z"/>
			
				<rect id="XMLID_852_" x="1935.5" y="1954.2" transform="matrix(0.7071 -0.7071 0.7071 0.7071 -826.4435 1948.2365)" class="st10" width="6" height="35.1"/>
		</g>
	</g>
</g>
<g>
	<g>
		<g id="XMLID_850_">
			<path class="st9" d="M1843.2,2177.3c0,7.1,5.9,13,13,13h28c7.2,0,12.9-5.2,12.8-11.5c0,0,0,0-3.2-12.9
				c-4.5-18-12.2-37.1-0.9-50.6c12-14.4,31.4-5.7,48.8-2.3c14.7,2.9,14.7,2.9,14.7,2.9c6.4,0.9,11.6-4.2,11.6-11.4v-26
				c0-7.2-5.8-13-13-13h-98.8c-7.1,0-13,5.8-13,13V2177.3z"/>
		</g>
		<g>
			<path id="XMLID_849_" class="st10" d="M1948.8,2143.5l-24.8,24.8l-18.8-18.8c-8.3-8.3,16.5-33.1,24.8-24.8L1948.8,2143.5z"/>
			
				<rect id="XMLID_848_" x="1921" y="2155" transform="matrix(0.7071 -0.7071 0.7071 0.7071 -958.1682 2002.7986)" class="st10" width="35.1" height="6"/>
		</g>
	</g>
	<g>
		<g id="XMLID_846_">
			<path class="st9" d="M1843.2,2204.5c0-7.2,5.9-13,13-13h28c7.2,0,12.9,5.2,12.8,11.5c0,0,0,0-3.2,12.9
				c-4.5,18-12.2,37.1-0.9,50.6c12,14.4,31.4,5.7,48.8,2.3c14.7-2.9,14.7-2.9,14.7-2.9c6.4-0.9,11.6,4.2,11.6,11.4v26
				c0,7.1-5.8,13-13,13h-98.8c-7.1,0-13-5.9-13-13V2204.5z"/>
		</g>
		<g>
			<path id="XMLID_845_" class="st10" d="M1948.8,2238.2l-24.8-24.8l-18.8,18.8c-8.3,8.3,16.5,33.1,24.8,24.8L1948.8,2238.2z"/>
			
				<rect id="XMLID_844_" x="1935.5" y="2206.2" transform="matrix(0.7071 -0.7071 0.7071 0.7071 -1004.6345 2022.0455)" class="st10" width="6" height="35.1"/>
		</g>
	</g>
</g>
<g>
	<g>
		<g>
			<path class="st11" d="M1803.7,1799.5c0,7.1,5.8,13,13,13h53.6c7.2,0,13-5.9,13-13v-11.4c0-7.2-5.8-13-13-13h-53.6
				c-7.2,0-13,5.8-13,13V1799.5z"/>
			<path class="st9" d="M1803.7,1799.5c0,7.1,5.8,13,13,13h53.6c7.2,0,13-5.9,13-13v-11.4c0-7.2-5.8-13-13-13h-53.6
				c-7.2,0-13,5.8-13,13V1799.5z"/>
		</g>
		<line class="st12" x1="1879.8" y1="1779.7" x2="1807.2" y2="1807.9"/>
	</g>
	<g>
		<g>
			<path class="st11" d="M1884.2,1799.5c0,7.1,5.8,13,13,13h53.6c7.2,0,13-5.9,13-13v-11.4c0-7.2-5.8-13-13-13h-53.6
				c-7.2,0-13,5.8-13,13V1799.5z"/>
			<path class="st9" d="M1884.2,1799.5c0,7.1,5.8,13,13,13h53.6c7.2,0,13-5.9,13-13v-11.4c0-7.2-5.8-13-13-13h-53.6
				c-7.2,0-13,5.8-13,13V1799.5z"/>
		</g>
		<line class="st12" x1="1960.3" y1="1779.7" x2="1887.7" y2="1807.9"/>
	</g>
	<g>
		<g>
			<path class="st11" d="M1723.2,1799.5c0,7.1,5.8,13,13,13h53.6c7.2,0,13-5.9,13-13v-11.4c0-7.2-5.8-13-13-13h-53.6
				c-7.2,0-13,5.8-13,13V1799.5z"/>
			<path class="st9" d="M1723.2,1799.5c0,7.1,5.8,13,13,13h53.6c7.2,0,13-5.9,13-13v-11.4c0-7.2-5.8-13-13-13h-53.6
				c-7.2,0-13,5.8-13,13V1799.5z"/>
		</g>
		<line class="st12" x1="1799.3" y1="1779.7" x2="1726.7" y2="1807.9"/>
	</g>
</g>
<g>
	<g>
		<path class="st11" d="M2221.5,1799.2c0,7.2-5.8,13-13,13h-53.6c-7.1,0-13-5.8-13-13v-11.4c0-7.2,5.9-13,13-13h53.6
			c7.2,0,13,5.8,13,13V1799.2z"/>
		<path class="st9" d="M2221.5,1799.2c0,7.2-5.8,13-13,13h-53.6c-7.1,0-13-5.8-13-13v-11.4c0-7.2,5.9-13,13-13h53.6
			c7.2,0,13,5.8,13,13V1799.2z"/>
	</g>
	<line class="st12" x1="2145.4" y1="1779.5" x2="2218" y2="1807.6"/>
</g>
<g>
	<g>
		<path class="st11" d="M2141,1799.2c0,7.2-5.8,13-13,13h-53.6c-7.1,0-13-5.8-13-13v-11.4c0-7.2,5.9-13,13-13h53.6
			c7.2,0,13,5.8,13,13V1799.2z"/>
		<path class="st9" d="M2141,1799.2c0,7.2-5.8,13-13,13h-53.6c-7.1,0-13-5.8-13-13v-11.4c0-7.2,5.9-13,13-13h53.6
			c7.2,0,13,5.8,13,13V1799.2z"/>
	</g>
	<line class="st12" x1="2064.9" y1="1779.5" x2="2137.5" y2="1807.6"/>
</g>
<g>
	<g>
		<path class="st11" d="M2302,1799.2c0,7.2-5.8,13-13,13h-53.6c-7.1,0-13-5.8-13-13v-11.4c0-7.2,5.9-13,13-13h53.6
			c7.2,0,13,5.8,13,13V1799.2z"/>
		<path class="st9" d="M2302,1799.2c0,7.2-5.8,13-13,13h-53.6c-7.1,0-13-5.8-13-13v-11.4c0-7.2,5.9-13,13-13h53.6
			c7.2,0,13,5.8,13,13V1799.2z"/>
	</g>
	<line class="st12" x1="2225.9" y1="1779.5" x2="2298.5" y2="1807.6"/>
</g>
<g>
	<g id="XMLID_842_">
		<path class="st9" d="M2868.5,1924.8c0,7.2-5.8,13-13,13h-28c-7.1,0-12.9-5.2-12.8-11.5c0,0,0,0,3.2-12.9
			c4.5-18,12.2-37.1,0.9-50.6c-12-14.4-31.4-5.7-48.8-2.3c-14.7,2.9-14.7,2.9-14.7,2.9c-6.4,0.9-11.6-4.2-11.6-11.4v-26
			c0-7.1,5.8-13,13-13h98.8c7.2,0,13,5.9,13,13V1924.8z"/>
	</g>
	<g>
		<path id="XMLID_841_" class="st10" d="M2762.9,1891l24.8,24.8l18.8-18.8c8.3-8.3-16.5-33.1-24.8-24.8L2762.9,1891z"/>
		
			<rect id="XMLID_840_" x="2770.2" y="1888" transform="matrix(0.7071 -0.7071 0.7071 0.7071 -535.1483 2519.0591)" class="st10" width="6" height="35.1"/>
	</g>
</g>
<g>
	<g id="XMLID_838_">
		<path class="st9" d="M2868.5,1952c0-7.1-5.8-13-13-13h-28c-7.1,0-12.9,5.2-12.8,11.5c0,0,0,0,3.2,12.9c4.5,18,12.2,37.1,0.9,50.6
			c-12,14.4-31.4,5.7-48.8,2.3c-14.7-2.9-14.7-2.9-14.7-2.9c-6.4-0.9-11.6,4.2-11.6,11.4v26c0,7.1,5.8,13,13,13h98.8
			c7.2,0,13-5.9,13-13V1952z"/>
	</g>
	<g>
		<path id="XMLID_837_" class="st10" d="M2762.9,1985.7l24.8-24.8l18.8,18.8c8.3,8.3-16.5,33.1-24.8,24.8L2762.9,1985.7z"/>
		
			<rect id="XMLID_836_" x="2755.7" y="1968.2" transform="matrix(0.7071 -0.7071 0.7071 0.7071 -581.6145 2538.3062)" class="st10" width="35.1" height="6"/>
	</g>
</g>
<g>
	<g id="XMLID_834_">
		<path class="st9" d="M2868.5,2176.8c0,7.1-5.8,13-13,13h-28c-7.1,0-12.9-5.2-12.8-11.5c0,0,0,0,3.2-12.9
			c4.5-18,12.2-37.1,0.9-50.6c-12-14.4-31.4-5.7-48.8-2.3c-14.7,2.9-14.7,2.9-14.7,2.9c-6.4,0.9-11.6-4.2-11.6-11.4v-26
			c0-7.2,5.8-13,13-13h98.8c7.2,0,13,5.8,13,13V2176.8z"/>
	</g>
	<g>
		<path id="XMLID_833_" class="st10" d="M2762.9,2143l24.8,24.8l18.8-18.8c8.3-8.3-16.5-33.1-24.8-24.8L2762.9,2143z"/>
		
			<rect id="XMLID_832_" x="2770.2" y="2140" transform="matrix(0.7071 -0.7071 0.7071 0.7071 -713.3392 2592.8682)" class="st10" width="6" height="35.1"/>
	</g>
</g>
<g>
	<g id="XMLID_830_">
		<path class="st9" d="M2180.7,1924.8c0,7.2-5.9,13-13,13h-28c-7.2,0-12.9-5.2-12.8-11.5c0,0,0,0,3.2-12.9
			c4.5-18,12.2-37.1,0.9-50.6c-12-14.4-31.4-5.7-48.8-2.3c-14.7,2.9-14.7,2.9-14.7,2.9c-6.4,0.9-11.6-4.2-11.6-11.4v-26
			c0-7.1,5.9-13,13-13h98.8c7.1,0,13,5.9,13,13V1924.8z"/>
	</g>
	<g>
		<path id="XMLID_829_" class="st10" d="M2075.1,1891l24.8,24.8l18.8-18.8c8.3-8.3-16.5-33.1-24.8-24.8L2075.1,1891z"/>
		
			<rect id="XMLID_828_" x="2082.4" y="1888" transform="matrix(0.7071 -0.7071 0.7071 0.7071 -736.61 2032.6875)" class="st10" width="6" height="35.1"/>
	</g>
</g>
<g>
	<g id="XMLID_826_">
		<path class="st9" d="M2180.7,1952c0-7.1-5.9-13-13-13h-28c-7.2,0-12.9,5.2-12.8,11.5c0,0,0,0,3.2,12.9c4.5,18,12.2,37.1,0.9,50.6
			c-12,14.4-31.4,5.7-48.8,2.3c-14.7-2.9-14.7-2.9-14.7-2.9c-6.4-0.9-11.6,4.2-11.6,11.4v26c0,7.1,5.9,13,13,13h98.8
			c7.1,0,13-5.9,13-13V1952z"/>
	</g>
	<g>
		<path id="XMLID_825_" class="st10" d="M2075.1,1985.7l24.8-24.8l18.8,18.8c8.3,8.3-16.5,33.1-24.8,24.8L2075.1,1985.7z"/>
		
			<rect id="XMLID_824_" x="2067.8" y="1968.2" transform="matrix(0.7071 -0.7071 0.7071 0.7071 -783.0762 2051.9343)" class="st10" width="35.1" height="6"/>
	</g>
</g>
<g>
	<g id="XMLID_822_">
		<path class="st9" d="M2180.7,2176.8c0,7.1-5.9,13-13,13h-28c-7.2,0-12.9-5.2-12.8-11.5c0,0,0,0,3.2-12.9
			c4.5-18,12.2-37.1,0.9-50.6c-12-14.4-31.4-5.7-48.8-2.3c-14.7,2.9-14.7,2.9-14.7,2.9c-6.4,0.9-11.6-4.2-11.6-11.4v-26
			c0-7.2,5.9-13,13-13h98.8c7.1,0,13,5.8,13,13V2176.8z"/>
	</g>
	<g>
		<path id="XMLID_821_" class="st10" d="M2075.1,2143l24.8,24.8l18.8-18.8c8.3-8.3-16.5-33.1-24.8-24.8L2075.1,2143z"/>
		
			<rect id="XMLID_820_" x="2082.4" y="2140" transform="matrix(0.7071 -0.7071 0.7071 0.7071 -914.8009 2106.4966)" class="st10" width="6" height="35.1"/>
	</g>
</g>
<g>
	<g>
		<path class="st11" d="M2907,1799c0,7.2-5.8,13-13,13h-53.6c-7.1,0-13-5.8-13-13v-11.4c0-7.2,5.9-13,13-13h53.6c7.2,0,13,5.8,13,13
			V1799z"/>
		<path class="st9" d="M2907,1799c0,7.2-5.8,13-13,13h-53.6c-7.1,0-13-5.8-13-13v-11.4c0-7.2,5.9-13,13-13h53.6c7.2,0,13,5.8,13,13
			V1799z"/>
	</g>
	<line class="st12" x1="2830.9" y1="1779.2" x2="2903.5" y2="1807.4"/>
</g>
<g>
	<g>
		<path class="st11" d="M2826.5,1799c0,7.2-5.8,13-13,13h-53.6c-7.1,0-13-5.8-13-13v-11.4c0-7.2,5.9-13,13-13h53.6
			c7.2,0,13,5.8,13,13V1799z"/>
		<path class="st9" d="M2826.5,1799c0,7.2-5.8,13-13,13h-53.6c-7.1,0-13-5.8-13-13v-11.4c0-7.2,5.9-13,13-13h53.6
			c7.2,0,13,5.8,13,13V1799z"/>
	</g>
	<line class="st12" x1="2750.4" y1="1779.2" x2="2823" y2="1807.4"/>
</g>
<g>
	<g>
		<path class="st11" d="M2882.5,1892.6c-7.1,0-13-5.9-13-13V1826c0-7.2,5.9-13,13-13h11.4c7.2,0,13,5.8,13,13v53.6
			c0,7.1-5.8,13-13,13H2882.5z"/>
		<path class="st9" d="M2882.5,1892.6c-7.1,0-13-5.9-13-13V1826c0-7.2,5.9-13,13-13h11.4c7.2,0,13,5.8,13,13v53.6
			c0,7.1-5.8,13-13,13H2882.5z"/>
	</g>
	<line class="st12" x1="2902.3" y1="1816.5" x2="2874.1" y2="1889.1"/>
</g>
<g>
	<g>
		<path class="st11" d="M2882.5,1973.1c-7.1,0-13-5.9-13-13v-53.6c0-7.2,5.9-13,13-13h11.4c7.2,0,13,5.8,13,13v53.6
			c0,7.1-5.8,13-13,13H2882.5z"/>
		<path class="st9" d="M2882.5,1973.1c-7.1,0-13-5.9-13-13v-53.6c0-7.2,5.9-13,13-13h11.4c7.2,0,13,5.8,13,13v53.6
			c0,7.1-5.8,13-13,13H2882.5z"/>
	</g>
	<line class="st12" x1="2902.3" y1="1897" x2="2874.1" y2="1969.6"/>
</g>
<g>
	<g>
		<path class="st11" d="M2882.5,2053.6c-7.1,0-13-5.8-13-13V1987c0-7.2,5.9-13,13-13h11.4c7.2,0,13,5.8,13,13v53.6
			c0,7.1-5.8,13-13,13H2882.5z"/>
		<path class="st9" d="M2882.5,2053.6c-7.1,0-13-5.8-13-13V1987c0-7.2,5.9-13,13-13h11.4c7.2,0,13,5.8,13,13v53.6
			c0,7.1-5.8,13-13,13H2882.5z"/>
	</g>
	<line class="st12" x1="2902.3" y1="1977.5" x2="2874.1" y2="2050.1"/>
</g>
<g>
	<g>
		<path class="st11" d="M2882.5,2134.1c-7.1,0-13-5.8-13-13v-53.6c0-7.1,5.9-13,13-13h11.4c7.2,0,13,5.9,13,13v53.6
			c0,7.2-5.8,13-13,13H2882.5z"/>
		<path class="st9" d="M2882.5,2134.1c-7.1,0-13-5.8-13-13v-53.6c0-7.1,5.9-13,13-13h11.4c7.2,0,13,5.9,13,13v53.6
			c0,7.2-5.8,13-13,13H2882.5z"/>
	</g>
	<line class="st12" x1="2902.3" y1="2058" x2="2874.1" y2="2130.6"/>
</g>
<g>
	<g>
		<path class="st11" d="M2882.5,2214.6c-7.1,0-13-5.8-13-13V2148c0-7.1,5.9-13,13-13h11.4c7.2,0,13,5.9,13,13v53.6
			c0,7.2-5.8,13-13,13H2882.5z"/>
		<path class="st9" d="M2882.5,2214.6c-7.1,0-13-5.8-13-13V2148c0-7.1,5.9-13,13-13h11.4c7.2,0,13,5.9,13,13v53.6
			c0,7.2-5.8,13-13,13H2882.5z"/>
	</g>
	<line class="st12" x1="2902.3" y1="2138.5" x2="2874.1" y2="2211.1"/>
</g>
<g>
	<path class="st8" d="M2116.1,2288.7c0,7.1-5.9,13-13,13h-34c-7.2,0-13-5.9-13-13v-34c0-7.1,5.8-13,13-13h34c7.1,0,13,5.9,13,13
		V2288.7z"/>
	<path class="st9" d="M2116.1,2288.7c0,7.1-5.9,13-13,13h-34c-7.2,0-13-5.9-13-13v-34c0-7.1,5.8-13,13-13h34c7.1,0,13,5.9,13,13
		V2288.7z"/>
</g>
<g>
	<path class="st8" d="M2784.1,257.5c0-7.2-5.9-13-13-13h-34c-7.2,0-13,5.8-13,13v34c0,7.1,5.8,13,13,13h34c7.1,0,13-5.9,13-13V257.5
		z"/>
	<path class="st9" d="M2784.1,257.5c0-7.2-5.9-13-13-13h-34c-7.2,0-13,5.8-13,13v34c0,7.1,5.8,13,13,13h34c7.1,0,13-5.9,13-13V257.5
		z"/>
</g>
<g>
	<g>
		<path class="st9" d="M2563,271.2c0-7.1-5.9-13-13-13h-102c-7.2,0-13,5.9-13,13v42c0,7.1,5.8,13,13,13h102c7.1,0,13-5.9,13-13
			V271.2z"/>
	</g>
	<g>
		<path id="XMLID_819_" class="st10" d="M2516.5,195.3h-35.1v26.6c0,11.7,35.1,11.7,35.1,0V195.3z"/>
		<rect id="XMLID_818_" x="2481.5" y="189.3" class="st10" width="35.1" height="6"/>
	</g>
	<g>
		<path id="XMLID_817_" class="st10" d="M2541.5,388.3h-35.1v-26.6c0-11.7,35.1-11.7,35.1,0V388.3z"/>
		<rect id="XMLID_816_" x="2506.5" y="388.3" class="st10" width="35.1" height="6"/>
	</g>
	<g>
		<path id="XMLID_815_" class="st10" d="M2488.5,388.3h-35.1v-26.6c0-11.7,35.1-11.7,35.1,0V388.3z"/>
		<rect id="XMLID_814_" x="2453.5" y="388.3" class="st10" width="35.1" height="6"/>
	</g>
</g>
<g>
	<g>
		<g id="XMLID_812_">
			<path class="st9" d="M2435.2,570.6c0-7.1,5.8-13,13-13h28c7.1,0,12.9,5.2,12.8,11.5c0,0,0,0-3.2,12.9c-4.5,18-12.2,37.1-0.9,50.6
				c12,14.4,31.4,5.7,48.8,2.3c14.7-2.9,14.7-2.9,14.7-2.9c6.4-0.9,11.6,4.2,11.6,11.4v26c0,7.2-5.8,13-13,13h-98.8
				c-7.2,0-13-5.8-13-13V570.6z"/>
		</g>
		<g>
			<path id="XMLID_811_" class="st10" d="M2540.8,604.4l-24.8-24.8l-18.8,18.8c-8.3,8.3,16.5,33.1,24.8,24.8L2540.8,604.4z"/>
			
				<rect id="XMLID_810_" x="2527.5" y="572.3" transform="matrix(0.7071 -0.7071 0.7071 0.7071 324.0677 1962.108)" class="st10" width="6" height="35.1"/>
		</g>
	</g>
	<g>
		<g id="XMLID_808_">
			<path class="st9" d="M2435.2,543.4c0,7.2,5.8,13,13,13h28c7.1,0,12.9-5.2,12.8-11.5c0,0,0,0-3.2-12.9c-4.5-18-12.2-37.1-0.9-50.6
				c12-14.4,31.4-5.7,48.8-2.3c14.7,2.9,14.7,2.9,14.7,2.9c6.4,0.9,11.6-4.2,11.6-11.4v-26c0-7.1-5.8-13-13-13h-98.8
				c-7.2,0-13,5.9-13,13V543.4z"/>
		</g>
		<g>
			<path id="XMLID_807_" class="st10" d="M2540.8,509.6l-24.8,24.8l-18.8-18.8c-8.3-8.3,16.5-33.1,24.8-24.8L2540.8,509.6z"/>
			
				<rect id="XMLID_806_" x="2513" y="521.2" transform="matrix(0.7071 -0.7071 0.7071 0.7071 370.5339 1942.8612)" class="st10" width="35.1" height="6"/>
		</g>
	</g>
</g>
<g>
	<g>
		<g id="XMLID_804_">
			<path class="st9" d="M2434.5,570.6c0-7.1-5.8-13-13-13h-28c-7.1,0-12.9,5.2-12.8,11.5c0,0,0,0,3.2,12.9
				c4.5,18,12.2,37.1,0.9,50.6c-12,14.4-31.4,5.7-48.8,2.3c-14.7-2.9-14.7-2.9-14.7-2.9c-6.4-0.9-11.6,4.2-11.6,11.4v26
				c0,7.2,5.8,13,13,13h98.8c7.2,0,13-5.8,13-13V570.6z"/>
		</g>
		<g>
			<path id="XMLID_799_" class="st10" d="M2328.9,604.4l24.8-24.8l18.8,18.8c8.3,8.3-16.5,33.1-24.8,24.8L2328.9,604.4z"/>
			
				<rect id="XMLID_798_" x="2321.7" y="586.9" transform="matrix(0.7071 -0.7071 0.7071 0.7071 268.0347 1826.8325)" class="st10" width="35.1" height="6"/>
		</g>
	</g>
	<g>
		<g id="XMLID_796_">
			<path class="st9" d="M2434.5,543.4c0,7.2-5.8,13-13,13h-28c-7.1,0-12.9-5.2-12.8-11.5c0,0,0,0,3.2-12.9
				c4.5-18,12.2-37.1,0.9-50.6c-12-14.4-31.4-5.7-48.8-2.3c-14.7,2.9-14.7,2.9-14.7,2.9c-6.4,0.9-11.6-4.2-11.6-11.4v-26
				c0-7.1,5.8-13,13-13h98.8c7.2,0,13,5.9,13,13V543.4z"/>
		</g>
		<g>
			<path id="XMLID_795_" class="st10" d="M2328.9,509.6l24.8,24.8l18.8-18.8c8.3-8.3-16.5-33.1-24.8-24.8L2328.9,509.6z"/>
			
				<rect id="XMLID_794_" x="2336.2" y="506.6" transform="matrix(0.7071 -0.7071 0.7071 0.7071 314.5009 1807.5856)" class="st10" width="6" height="35.1"/>
		</g>
	</g>
</g>
<g>
	<g>
		<g id="XMLID_792_">
			<path class="st9" d="M2434.5,318.6c0-7.1-5.8-13-13-13h-28c-7.1,0-12.9,5.2-12.8,11.5c0,0,0,0,3.2,12.9
				c4.5,18,12.2,37.1,0.9,50.6c-12,14.4-31.4,5.7-48.8,2.3c-14.7-2.9-14.7-2.9-14.7-2.9c-6.4-0.9-11.6,4.2-11.6,11.4v26
				c0,7.1,5.8,13,13,13h98.8c7.2,0,13-5.9,13-13V318.6z"/>
		</g>
		<g>
			<path id="XMLID_791_" class="st10" d="M2328.9,352.4l24.8-24.8l18.8,18.8c8.3,8.3-16.5,33.1-24.8,24.8L2328.9,352.4z"/>
			
				<rect id="XMLID_790_" x="2321.7" y="334.9" transform="matrix(0.7071 -0.7071 0.7071 0.7071 446.2256 1753.0233)" class="st10" width="35.1" height="6"/>
		</g>
	</g>
	<g>
		<g id="XMLID_788_">
			<path class="st9" d="M2434.5,291.4c0,7.1-5.8,13-13,13h-28c-7.1,0-12.9-5.2-12.8-11.5c0,0,0,0,3.2-12.9
				c4.5-18,12.2-37.1,0.9-50.6c-12-14.4-31.4-5.7-48.8-2.3c-14.7,2.9-14.7,2.9-14.7,2.9c-6.4,0.9-11.6-4.2-11.6-11.4v-26
				c0-7.2,5.8-13,13-13h98.8c7.2,0,13,5.8,13,13V291.4z"/>
		</g>
		<g>
			<path id="XMLID_787_" class="st10" d="M2328.9,257.6l24.8,24.8l18.8-18.8c8.3-8.3-16.5-33.1-24.8-24.8L2328.9,257.6z"/>
			
				<rect id="XMLID_786_" x="2336.2" y="254.6" transform="matrix(0.7071 -0.7071 0.7071 0.7071 492.6918 1733.7765)" class="st10" width="6" height="35.1"/>
		</g>
	</g>
</g>
<g>
	<g id="XMLID_784_">
		<path class="st9" d="M2097.7,570.6c0-7.1,5.8-13,13-13h28c7.1,0,12.9,5.2,12.8,11.5c0,0,0,0-3.2,12.9c-4.5,18-12.2,37.1-0.9,50.6
			c12,14.4,31.4,5.7,48.8,2.3c14.7-2.9,14.7-2.9,14.7-2.9c6.4-0.9,11.6,4.2,11.6,11.4v26c0,7.2-5.8,13-13,13h-98.8
			c-7.2,0-13-5.8-13-13V570.6z"/>
	</g>
	<g>
		<path id="XMLID_783_" class="st10" d="M2203.3,604.4l-24.8-24.8l-18.8,18.8c-8.3,8.3,16.5,33.1,24.8,24.8L2203.3,604.4z"/>
		
			<rect id="XMLID_778_" x="2190" y="572.3" transform="matrix(0.7071 -0.7071 0.7071 0.7071 225.2162 1723.4596)" class="st10" width="6" height="35.1"/>
	</g>
</g>
<g>
	<g id="XMLID_765_">
		<path class="st9" d="M2097.7,543.4c0,7.2,5.8,13,13,13h28c7.1,0,12.9-5.2,12.8-11.5c0,0,0,0-3.2-12.9c-4.5-18-12.2-37.1-0.9-50.6
			c12-14.4,31.4-5.7,48.8-2.3c14.7,2.9,14.7,2.9,14.7,2.9c6.4,0.9,11.6-4.2,11.6-11.4v-26c0-7.1-5.8-13-13-13h-98.8
			c-7.2,0-13,5.9-13,13V543.4z"/>
	</g>
	<g>
		<path id="XMLID_743_" class="st10" d="M2203.3,509.6l-24.8,24.8l-18.8-18.8c-8.3-8.3,16.5-33.1,24.8-24.8L2203.3,509.6z"/>
		
			<rect id="XMLID_742_" x="2175.5" y="521.2" transform="matrix(0.7071 -0.7071 0.7071 0.7071 271.6825 1704.2126)" class="st10" width="35.1" height="6"/>
	</g>
</g>
<g>
	<g>
		<g id="XMLID_734_">
			<path class="st9" d="M2097.7,318.6c0-7.1,5.8-13,13-13h28c7.1,0,12.9,5.2,12.8,11.5c0,0,0,0-3.2,12.9c-4.5,18-12.2,37.1-0.9,50.6
				c12,14.4,31.4,5.7,48.8,2.3c14.7-2.9,14.7-2.9,14.7-2.9c6.4-0.9,11.6,4.2,11.6,11.4v26c0,7.1-5.8,13-13,13h-98.8
				c-7.2,0-13-5.9-13-13V318.6z"/>
		</g>
		<g>
			<path id="XMLID_733_" class="st10" d="M2203.3,352.4l-24.8-24.8l-18.8,18.8c-8.3,8.3,16.5,33.1,24.8,24.8L2203.3,352.4z"/>
			
				<rect id="XMLID_732_" x="2190" y="320.3" transform="matrix(0.7071 -0.7071 0.7071 0.7071 403.4072 1649.6505)" class="st10" width="6" height="35.1"/>
		</g>
	</g>
	<g>
		<g id="XMLID_730_">
			<path class="st9" d="M2097.7,291.4c0,7.1,5.8,13,13,13h28c7.1,0,12.9-5.2,12.8-11.5c0,0,0,0-3.2-12.9c-4.5-18-12.2-37.1-0.9-50.6
				c12-14.4,31.4-5.7,48.8-2.3c14.7,2.9,14.7,2.9,14.7,2.9c6.4,0.9,11.6-4.2,11.6-11.4v-26c0-7.2-5.8-13-13-13h-98.8
				c-7.2,0-13,5.8-13,13V291.4z"/>
		</g>
		<g>
			<path id="XMLID_729_" class="st10" d="M2203.3,257.6l-24.8,24.8l-18.8-18.8c-8.3-8.3,16.5-33.1,24.8-24.8L2203.3,257.6z"/>
			
				<rect id="XMLID_728_" x="2175.5" y="269.2" transform="matrix(0.7071 -0.7071 0.7071 0.7071 449.8734 1630.4036)" class="st10" width="35.1" height="6"/>
		</g>
	</g>
</g>
<g>
	<g>
		<g>
			<path class="st11" d="M2474,696.4c0-7.2-5.8-13-13-13h-53.6c-7.1,0-13,5.8-13,13v11.4c0,7.2,5.9,13,13,13h53.6
				c7.2,0,13-5.8,13-13V696.4z"/>
			<path class="st9" d="M2474,696.4c0-7.2-5.8-13-13-13h-53.6c-7.1,0-13,5.8-13,13v11.4c0,7.2,5.9,13,13,13h53.6c7.2,0,13-5.8,13-13
				V696.4z"/>
		</g>
		<line class="st12" x1="2397.9" y1="716.1" x2="2470.5" y2="688"/>
	</g>
	<g>
		<g>
			<path class="st11" d="M2393.5,696.4c0-7.2-5.8-13-13-13h-53.6c-7.1,0-13,5.8-13,13v11.4c0,7.2,5.9,13,13,13h53.6
				c7.2,0,13-5.8,13-13V696.4z"/>
			<path class="st9" d="M2393.5,696.4c0-7.2-5.8-13-13-13h-53.6c-7.1,0-13,5.8-13,13v11.4c0,7.2,5.9,13,13,13h53.6
				c7.2,0,13-5.8,13-13V696.4z"/>
		</g>
		<line class="st12" x1="2317.4" y1="716.1" x2="2390" y2="688"/>
	</g>
	<g>
		<g>
			<path class="st11" d="M2554.5,696.4c0-7.2-5.8-13-13-13h-53.6c-7.1,0-13,5.8-13,13v11.4c0,7.2,5.9,13,13,13h53.6
				c7.2,0,13-5.8,13-13V696.4z"/>
			<path class="st9" d="M2554.5,696.4c0-7.2-5.8-13-13-13h-53.6c-7.1,0-13,5.8-13,13v11.4c0,7.2,5.9,13,13,13h53.6
				c7.2,0,13-5.8,13-13V696.4z"/>
		</g>
		<line class="st12" x1="2478.4" y1="716.1" x2="2551" y2="688"/>
	</g>
</g>
<g>
	<g>
		<path class="st9" d="M1630.7,270.7c0-7.1,5.8-13,13-13h102c7.1,0,13,5.9,13,13v42c0,7.1-5.9,13-13,13h-102c-7.2,0-13-5.9-13-13
			V270.7z"/>
	</g>
	<g>
		<path id="XMLID_727_" class="st10" d="M1677.2,194.8h35.1v26.6c0,11.7-35.1,11.7-35.1,0V194.8z"/>
		<rect id="XMLID_726_" x="1677.2" y="188.8" class="st10" width="35.1" height="6"/>
	</g>
	<g>
		<path id="XMLID_725_" class="st10" d="M1652.2,387.8h35.1v-26.6c0-11.7-35.1-11.7-35.1,0V387.8z"/>
		<rect id="XMLID_724_" x="1652.2" y="387.8" class="st10" width="35.1" height="6"/>
	</g>
	<g>
		<path id="XMLID_723_" class="st10" d="M1705.2,387.8h35.1v-26.6c0-11.7-35.1-11.7-35.1,0V387.8z"/>
		<rect id="XMLID_722_" x="1705.2" y="387.8" class="st10" width="35.1" height="6"/>
	</g>
</g>
<g>
	<g>
		<path class="st9" d="M1759.7,270.7c0-7.1,5.8-13,13-13h102c7.1,0,13,5.9,13,13v42c0,7.1-5.9,13-13,13h-102c-7.2,0-13-5.9-13-13
			V270.7z"/>
	</g>
	<g>
		<path id="XMLID_721_" class="st10" d="M1806.2,194.8h35.1v26.6c0,11.7-35.1,11.7-35.1,0V194.8z"/>
		<rect id="XMLID_720_" x="1806.2" y="188.8" class="st10" width="35.1" height="6"/>
	</g>
	<g>
		<path id="XMLID_719_" class="st10" d="M1781.2,387.8h35.1v-26.6c0-11.7-35.1-11.7-35.1,0V387.8z"/>
		<rect id="XMLID_718_" x="1781.2" y="387.8" class="st10" width="35.1" height="6"/>
	</g>
	<g>
		<path id="XMLID_715_" class="st10" d="M1834.2,387.8h35.1v-26.6c0-11.7-35.1-11.7-35.1,0V387.8z"/>
		<rect id="XMLID_713_" x="1834.2" y="387.8" class="st10" width="35.1" height="6"/>
	</g>
</g>
<g>
	<g>
		<g id="XMLID_711_">
			<path class="st9" d="M1758.5,570.1c0-7.1-5.8-13-13-13h-28c-7.2,0-12.9,5.2-12.8,11.5c0,0,0,0,3.2,12.9
				c4.5,18,12.2,37.1,0.9,50.6c-12,14.4-31.4,5.7-48.8,2.3c-14.7-2.9-14.7-2.9-14.7-2.9c-6.4-0.9-11.6,4.2-11.6,11.4v26
				c0,7.2,5.9,13,13,13h98.8c7.2,0,13-5.8,13-13V570.1z"/>
		</g>
		<g>
			<path id="XMLID_710_" class="st10" d="M1652.9,603.9l24.8-24.8l18.8,18.8c8.3,8.3-16.5,33.1-24.8,24.8L1652.9,603.9z"/>
			
				<rect id="XMLID_709_" x="1645.7" y="586.4" transform="matrix(0.7071 -0.7071 0.7071 0.7071 70.3924 1348.6818)" class="st10" width="35.1" height="6"/>
		</g>
	</g>
	<g>
		<g id="XMLID_707_">
			<path class="st9" d="M1758.5,542.9c0,7.2-5.8,13-13,13h-28c-7.2,0-12.9-5.2-12.8-11.5c0,0,0,0,3.2-12.9
				c4.5-18,12.2-37.1,0.9-50.6c-12-14.4-31.4-5.7-48.8-2.3c-14.7,2.9-14.7,2.9-14.7,2.9c-6.4,0.9-11.6-4.2-11.6-11.4v-26
				c0-7.1,5.9-13,13-13h98.8c7.2,0,13,5.9,13,13V542.9z"/>
		</g>
		<g>
			<path id="XMLID_706_" class="st10" d="M1652.9,509.1l24.8,24.8l18.8-18.8c8.3-8.3-16.5-33.1-24.8-24.8L1652.9,509.1z"/>
			
				<rect id="XMLID_705_" x="1660.2" y="506.1" transform="matrix(0.7071 -0.7071 0.7071 0.7071 116.8586 1329.4348)" class="st10" width="6" height="35.1"/>
		</g>
	</g>
</g>
<g>
	<g>
		<g id="XMLID_703_">
			<path class="st9" d="M1759.2,570.1c0-7.1,5.9-13,13-13h28c7.2,0,12.9,5.2,12.8,11.5c0,0,0,0-3.2,12.9c-4.5,18-12.2,37.1-0.9,50.6
				c12,14.4,31.4,5.7,48.8,2.3c14.7-2.9,14.7-2.9,14.7-2.9c6.4-0.9,11.6,4.2,11.6,11.4v26c0,7.2-5.8,13-13,13h-98.8
				c-7.1,0-13-5.8-13-13V570.1z"/>
		</g>
		<g>
			<path id="XMLID_702_" class="st10" d="M1864.8,603.9l-24.8-24.8l-18.8,18.8c-8.3,8.3,16.5,33.1,24.8,24.8L1864.8,603.9z"/>
			
				<rect id="XMLID_701_" x="1851.5" y="571.8" transform="matrix(0.7071 -0.7071 0.7071 0.7071 126.4254 1483.9574)" class="st10" width="6" height="35.1"/>
		</g>
	</g>
	<g>
		<g id="XMLID_699_">
			<path class="st9" d="M1759.2,542.9c0,7.2,5.9,13,13,13h28c7.2,0,12.9-5.2,12.8-11.5c0,0,0,0-3.2-12.9c-4.5-18-12.2-37.1-0.9-50.6
				c12-14.4,31.4-5.7,48.8-2.3c14.7,2.9,14.7,2.9,14.7,2.9c6.4,0.9,11.6-4.2,11.6-11.4v-26c0-7.1-5.8-13-13-13h-98.8
				c-7.1,0-13,5.9-13,13V542.9z"/>
		</g>
		<g>
			<path id="XMLID_698_" class="st10" d="M1864.8,509.1l-24.8,24.8l-18.8-18.8c-8.3-8.3,16.5-33.1,24.8-24.8L1864.8,509.1z"/>
			
				<rect id="XMLID_697_" x="1837" y="520.7" transform="matrix(0.7071 -0.7071 0.7071 0.7071 172.8916 1464.7104)" class="st10" width="35.1" height="6"/>
		</g>
	</g>
</g>
<g>
	<g>
		<g>
			<path class="st11" d="M1719.7,695.9c0-7.1,5.8-13,13-13h53.6c7.2,0,13,5.9,13,13v11.4c0,7.2-5.8,13-13,13h-53.6
				c-7.2,0-13-5.8-13-13V695.9z"/>
			<path class="st9" d="M1719.7,695.9c0-7.1,5.8-13,13-13h53.6c7.2,0,13,5.9,13,13v11.4c0,7.2-5.8,13-13,13h-53.6
				c-7.2,0-13-5.8-13-13V695.9z"/>
		</g>
		<line class="st12" x1="1795.8" y1="715.6" x2="1723.2" y2="687.5"/>
	</g>
	<g>
		<g>
			<path class="st11" d="M1800.2,695.9c0-7.1,5.8-13,13-13h53.6c7.2,0,13,5.9,13,13v11.4c0,7.2-5.8,13-13,13h-53.6
				c-7.2,0-13-5.8-13-13V695.9z"/>
			<path class="st9" d="M1800.2,695.9c0-7.1,5.8-13,13-13h53.6c7.2,0,13,5.9,13,13v11.4c0,7.2-5.8,13-13,13h-53.6
				c-7.2,0-13-5.8-13-13V695.9z"/>
		</g>
		<line class="st12" x1="1876.3" y1="715.6" x2="1803.7" y2="687.5"/>
	</g>
	<g>
		<g>
			<path class="st11" d="M1639.2,695.9c0-7.1,5.8-13,13-13h53.6c7.2,0,13,5.9,13,13v11.4c0,7.2-5.8,13-13,13h-53.6
				c-7.2,0-13-5.8-13-13V695.9z"/>
			<path class="st9" d="M1639.2,695.9c0-7.1,5.8-13,13-13h53.6c7.2,0,13,5.9,13,13v11.4c0,7.2-5.8,13-13,13h-53.6
				c-7.2,0-13-5.8-13-13V695.9z"/>
		</g>
		<line class="st12" x1="1715.3" y1="715.6" x2="1642.7" y2="687.5"/>
	</g>
</g>
<g>
	<g>
		<path class="st11" d="M2137.5,696.1c0-7.2-5.8-13-13-13h-53.6c-7.1,0-13,5.8-13,13v11.4c0,7.2,5.9,13,13,13h53.6
			c7.2,0,13-5.8,13-13V696.1z"/>
		<path class="st9" d="M2137.5,696.1c0-7.2-5.8-13-13-13h-53.6c-7.1,0-13,5.8-13,13v11.4c0,7.2,5.9,13,13,13h53.6
			c7.2,0,13-5.8,13-13V696.1z"/>
	</g>
	<line class="st12" x1="2061.4" y1="715.9" x2="2134" y2="687.7"/>
</g>
<g>
	<g>
		<path class="st11" d="M2057,696.1c0-7.2-5.8-13-13-13h-53.6c-7.2,0-13,5.8-13,13v11.4c0,7.2,5.8,13,13,13h53.6c7.2,0,13-5.8,13-13
			V696.1z"/>
		<path class="st9" d="M2057,696.1c0-7.2-5.8-13-13-13h-53.6c-7.2,0-13,5.8-13,13v11.4c0,7.2,5.8,13,13,13h53.6c7.2,0,13-5.8,13-13
			V696.1z"/>
	</g>
	<line class="st12" x1="1980.9" y1="715.9" x2="2053.5" y2="687.7"/>
</g>
<g>
	<g>
		<path class="st11" d="M2218,696.1c0-7.2-5.8-13-13-13h-53.6c-7.1,0-13,5.8-13,13v11.4c0,7.2,5.9,13,13,13h53.6c7.2,0,13-5.8,13-13
			V696.1z"/>
		<path class="st9" d="M2218,696.1c0-7.2-5.8-13-13-13h-53.6c-7.1,0-13,5.8-13,13v11.4c0,7.2,5.9,13,13,13h53.6c7.2,0,13-5.8,13-13
			V696.1z"/>
	</g>
	<line class="st12" x1="2141.9" y1="715.9" x2="2214.5" y2="687.7"/>
</g>
<g>
	<g id="XMLID_695_">
		<path class="st9" d="M2784.5,570.6c0-7.1-5.8-13-13-13h-28c-7.1,0-12.9,5.2-12.8,11.5c0,0,0,0,3.2,12.9c4.5,18,12.2,37.1,0.9,50.6
			c-12,14.4-31.4,5.7-48.8,2.3c-14.7-2.9-14.7-2.9-14.7-2.9c-6.4-0.9-11.6,4.2-11.6,11.4v26c0,7.2,5.8,13,13,13h98.8
			c7.2,0,13-5.8,13-13V570.6z"/>
	</g>
	<g>
		<path id="XMLID_694_" class="st10" d="M2678.9,604.4l24.8-24.8l18.8,18.8c8.3,8.3-16.5,33.1-24.8,24.8L2678.9,604.4z"/>
		
			<rect id="XMLID_693_" x="2671.7" y="586.9" transform="matrix(0.7071 -0.7071 0.7071 0.7071 370.5473 2074.3198)" class="st10" width="35.1" height="6"/>
	</g>
</g>
<g>
	<g id="XMLID_691_">
		<path class="st9" d="M2784.5,543.4c0,7.2-5.8,13-13,13h-28c-7.1,0-12.9-5.2-12.8-11.5c0,0,0,0,3.2-12.9c4.5-18,12.2-37.1,0.9-50.6
			c-12-14.4-31.4-5.7-48.8-2.3c-14.7,2.9-14.7,2.9-14.7,2.9c-6.4,0.9-11.6-4.2-11.6-11.4v-26c0-7.1,5.8-13,13-13h98.8
			c7.2,0,13,5.9,13,13V543.4z"/>
	</g>
	<g>
		<path id="XMLID_690_" class="st10" d="M2678.9,509.6l24.8,24.8l18.8-18.8c8.3-8.3-16.5-33.1-24.8-24.8L2678.9,509.6z"/>
		
			<rect id="XMLID_689_" x="2686.2" y="506.6" transform="matrix(0.7071 -0.7071 0.7071 0.7071 417.0135 2055.073)" class="st10" width="6" height="35.1"/>
	</g>
</g>
<g>
	<g id="XMLID_687_">
		<path class="st9" d="M2784.5,318.6c0-7.1-5.8-13-13-13h-28c-7.1,0-12.9,5.2-12.8,11.5c0,0,0,0,3.2,12.9c4.5,18,12.2,37.1,0.9,50.6
			c-12,14.4-31.4,5.7-48.8,2.3c-14.7-2.9-14.7-2.9-14.7-2.9c-6.4-0.9-11.6,4.2-11.6,11.4v26c0,7.1,5.8,13,13,13h98.8
			c7.2,0,13-5.9,13-13V318.6z"/>
	</g>
	<g>
		<path id="XMLID_686_" class="st10" d="M2678.9,352.4l24.8-24.8l18.8,18.8c8.3,8.3-16.5,33.1-24.8,24.8L2678.9,352.4z"/>
		
			<rect id="XMLID_685_" x="2671.7" y="334.9" transform="matrix(0.7071 -0.7071 0.7071 0.7071 548.7382 2000.5107)" class="st10" width="35.1" height="6"/>
	</g>
</g>
<g>
	<g id="XMLID_683_">
		<path class="st9" d="M2096.7,570.6c0-7.1-5.9-13-13-13h-28c-7.2,0-12.9,5.2-12.8,11.5c0,0,0,0,3.2,12.9c4.5,18,12.2,37.1,0.9,50.6
			c-12,14.4-31.4,5.7-48.8,2.3c-14.7-2.9-14.7-2.9-14.7-2.9c-6.4-0.9-11.6,4.2-11.6,11.4v26c0,7.2,5.8,13,13,13h98.8
			c7.1,0,13-5.8,13-13V570.6z"/>
	</g>
	<g>
		<path id="XMLID_682_" class="st10" d="M1991.1,604.4l24.8-24.8l18.8,18.8c8.3,8.3-16.5,33.1-24.8,24.8L1991.1,604.4z"/>
		
			<rect id="XMLID_681_" x="1983.8" y="586.9" transform="matrix(0.7071 -0.7071 0.7071 0.7071 169.0856 1587.9482)" class="st10" width="35.1" height="6"/>
	</g>
</g>
<g>
	<g id="XMLID_677_">
		<path class="st9" d="M2096.7,543.4c0,7.2-5.9,13-13,13h-28c-7.2,0-12.9-5.2-12.8-11.5c0,0,0,0,3.2-12.9c4.5-18,12.2-37.1,0.9-50.6
			c-12-14.4-31.4-5.7-48.8-2.3c-14.7,2.9-14.7,2.9-14.7,2.9c-6.4,0.9-11.6-4.2-11.6-11.4v-26c0-7.1,5.8-13,13-13h98.8
			c7.1,0,13,5.9,13,13V543.4z"/>
	</g>
	<g>
		<path id="XMLID_676_" class="st10" d="M1991.1,509.6l24.8,24.8l18.8-18.8c8.3-8.3-16.5-33.1-24.8-24.8L1991.1,509.6z"/>
		
			<rect id="XMLID_675_" x="1998.4" y="506.6" transform="matrix(0.7071 -0.7071 0.7071 0.7071 215.5518 1568.7013)" class="st10" width="6" height="35.1"/>
	</g>
</g>
<g>
	<g id="XMLID_665_">
		<path class="st9" d="M2096.7,318.6c0-7.1-5.9-13-13-13h-28c-7.2,0-12.9,5.2-12.8,11.5c0,0,0,0,3.2,12.9c4.5,18,12.2,37.1,0.9,50.6
			c-12,14.4-31.4,5.7-48.8,2.3c-14.7-2.9-14.7-2.9-14.7-2.9c-6.4-0.9-11.6,4.2-11.6,11.4v26c0,7.1,5.8,13,13,13h98.8
			c7.1,0,13-5.9,13-13V318.6z"/>
	</g>
	<g>
		<path id="XMLID_664_" class="st10" d="M1991.1,352.4l24.8-24.8l18.8,18.8c8.3,8.3-16.5,33.1-24.8,24.8L1991.1,352.4z"/>
		
			<rect id="XMLID_663_" x="1983.8" y="334.9" transform="matrix(0.7071 -0.7071 0.7071 0.7071 347.2765 1514.1392)" class="st10" width="35.1" height="6"/>
	</g>
</g>
<g>
	<g>
		<path class="st11" d="M2742.5,696.4c0-7.2-5.8-13-13-13h-53.6c-7.1,0-13,5.8-13,13v11.4c0,7.2,5.9,13,13,13h53.6
			c7.2,0,13-5.8,13-13V696.4z"/>
		<path class="st9" d="M2742.5,696.4c0-7.2-5.8-13-13-13h-53.6c-7.1,0-13,5.8-13,13v11.4c0,7.2,5.9,13,13,13h53.6
			c7.2,0,13-5.8,13-13V696.4z"/>
	</g>
	<line class="st12" x1="2666.4" y1="716.1" x2="2739" y2="688"/>
</g>
<g>
	<g>
		<path class="st11" d="M1566.2,647.6c-7.2,0-13,5.8-13,13v53.6c0,7.1,5.8,13,13,13h11.4c7.2,0,13-5.9,13-13v-53.6
			c0-7.2-5.8-13-13-13H1566.2z"/>
		<path class="st9" d="M1566.2,647.6c-7.2,0-13,5.8-13,13v53.6c0,7.1,5.8,13,13,13h11.4c7.2,0,13-5.9,13-13v-53.6
			c0-7.2-5.8-13-13-13H1566.2z"/>
	</g>
	<line class="st12" x1="1586" y1="723.7" x2="1557.8" y2="651.1"/>
</g>
<g>
	<g>
		<path class="st11" d="M1566.2,567.1c-7.2,0-13,5.8-13,13v53.6c0,7.1,5.8,13,13,13h11.4c7.2,0,13-5.9,13-13v-53.6
			c0-7.2-5.8-13-13-13H1566.2z"/>
		<path class="st9" d="M1566.2,567.1c-7.2,0-13,5.8-13,13v53.6c0,7.1,5.8,13,13,13h11.4c7.2,0,13-5.9,13-13v-53.6
			c0-7.2-5.8-13-13-13H1566.2z"/>
	</g>
	<line class="st12" x1="1586" y1="643.2" x2="1557.8" y2="570.6"/>
</g>
<g>
	<g>
		<path class="st11" d="M1566.2,486.6c-7.2,0-13,5.9-13,13v53.6c0,7.1,5.8,13,13,13h11.4c7.2,0,13-5.9,13-13v-53.6
			c0-7.1-5.8-13-13-13H1566.2z"/>
		<path class="st9" d="M1566.2,486.6c-7.2,0-13,5.9-13,13v53.6c0,7.1,5.8,13,13,13h11.4c7.2,0,13-5.9,13-13v-53.6
			c0-7.1-5.8-13-13-13H1566.2z"/>
	</g>
	<line class="st12" x1="1586" y1="562.7" x2="1557.8" y2="490.1"/>
</g>
<g>
	<g>
		<path class="st11" d="M1566.2,406.1c-7.2,0-13,5.9-13,13v53.6c0,7.1,5.8,13,13,13h11.4c7.2,0,13-5.9,13-13v-53.6
			c0-7.1-5.8-13-13-13H1566.2z"/>
		<path class="st9" d="M1566.2,406.1c-7.2,0-13,5.9-13,13v53.6c0,7.1,5.8,13,13,13h11.4c7.2,0,13-5.9,13-13v-53.6
			c0-7.1-5.8-13-13-13H1566.2z"/>
	</g>
	<line class="st12" x1="1586" y1="482.2" x2="1557.8" y2="409.6"/>
</g>
<g>
	<g>
		<path class="st11" d="M1566.2,325.6c-7.2,0-13,5.9-13,13v53.6c0,7.1,5.8,13,13,13h11.4c7.2,0,13-5.9,13-13v-53.6
			c0-7.1-5.8-13-13-13H1566.2z"/>
		<path class="st9" d="M1566.2,325.6c-7.2,0-13,5.9-13,13v53.6c0,7.1,5.8,13,13,13h11.4c7.2,0,13-5.9,13-13v-53.6
			c0-7.1-5.8-13-13-13H1566.2z"/>
	</g>
	<line class="st12" x1="1586" y1="401.7" x2="1557.8" y2="329.1"/>
</g>
<g>
	<g>
		<path class="st11" d="M1566.2,245.1c-7.2,0-13,5.8-13,13v53.6c0,7.1,5.8,13,13,13h11.4c7.2,0,13-5.9,13-13v-53.6
			c0-7.1-5.8-13-13-13H1566.2z"/>
		<path class="st9" d="M1566.2,245.1c-7.2,0-13,5.8-13,13v53.6c0,7.1,5.8,13,13,13h11.4c7.2,0,13-5.9,13-13v-53.6
			c0-7.1-5.8-13-13-13H1566.2z"/>
	</g>
	<line class="st12" x1="1586" y1="321.2" x2="1557.8" y2="248.6"/>
</g>
<g>
	<g>
		<path class="st11" d="M1566.2,164.6c-7.2,0-13,5.8-13,13v53.6c0,7.1,5.8,13,13,13h11.4c7.2,0,13-5.9,13-13v-53.6
			c0-7.2-5.8-13-13-13H1566.2z"/>
		<path class="st9" d="M1566.2,164.6c-7.2,0-13,5.8-13,13v53.6c0,7.1,5.8,13,13,13h11.4c7.2,0,13-5.9,13-13v-53.6
			c0-7.2-5.8-13-13-13H1566.2z"/>
	</g>
	<line class="st12" x1="1586" y1="240.7" x2="1557.8" y2="168.1"/>
</g>
<g>
	<path class="st8" d="M2096.6,257.2c0-7.2-5.9-13-13-13h-34c-7.2,0-13,5.8-13,13v34c0,7.1,5.8,13,13,13h34c7.1,0,13-5.9,13-13V257.2
		z"/>
	<path class="st9" d="M2096.6,257.2c0-7.2-5.9-13-13-13h-34c-7.2,0-13,5.8-13,13v34c0,7.1,5.8,13,13,13h34c7.1,0,13-5.9,13-13V257.2
		z"/>
</g>
<g>
	<g>
		<path class="st9" d="M1633.2,2224.7c0,7.1-5.8,13-13,13h-102c-7.2,0-13-5.9-13-13v-42c0-7.1,5.8-13,13-13h102c7.2,0,13,5.9,13,13
			V2224.7z"/>
	</g>
	<g>
		<path id="XMLID_662_" class="st10" d="M1586.8,2300.6h-35.1V2274c0-11.7,35.1-11.7,35.1,0V2300.6z"/>
		<rect id="XMLID_661_" x="1551.7" y="2300.6" class="st10" width="35.1" height="6"/>
	</g>
	<g>
		<path id="XMLID_660_" class="st10" d="M1611.8,2107.6h-35.1v26.6c0,11.7,35.1,11.7,35.1,0V2107.6z"/>
		<rect id="XMLID_659_" x="1576.7" y="2101.6" class="st10" width="35.1" height="6"/>
	</g>
	<g>
		<path id="XMLID_658_" class="st10" d="M1558.8,2107.6h-35.1v26.6c0,11.7,35.1,11.7,35.1,0V2107.6z"/>
		<rect id="XMLID_657_" x="1523.7" y="2101.6" class="st10" width="35.1" height="6"/>
	</g>
</g>
<g>
	<g>
		<g id="XMLID_655_">
			<path class="st9" d="M1505.5,1925.3c0,7.2,5.8,13,13,13h28c7.2,0,12.9-5.2,12.8-11.5c0,0,0,0-3.2-12.9
				c-4.5-18-12.2-37.1-0.9-50.6c12-14.4,31.4-5.7,48.8-2.3c14.7,2.9,14.7,2.9,14.7,2.9c6.4,0.9,11.6-4.2,11.6-11.4v-26
				c0-7.1-5.9-13-13-13h-98.8c-7.2,0-13,5.9-13,13V1925.3z"/>
		</g>
		<g>
			<path id="XMLID_654_" class="st10" d="M1611,1891.5l-24.8,24.8l-18.8-18.8c-8.3-8.3,16.5-33.1,24.8-24.8L1611,1891.5z"/>
			
				<rect id="XMLID_653_" x="1583.2" y="1903" transform="matrix(0.7071 -0.7071 0.7071 0.7071 -878.902 1690.1643)" class="st10" width="35.1" height="6"/>
		</g>
	</g>
	<g>
		<g id="XMLID_640_">
			<path class="st9" d="M1505.5,1952.5c0-7.1,5.8-13,13-13h28c7.2,0,12.9,5.2,12.8,11.5c0,0,0,0-3.2,12.9
				c-4.5,18-12.2,37.1-0.9,50.6c12,14.4,31.4,5.7,48.8,2.3c14.7-2.9,14.7-2.9,14.7-2.9c6.4-0.9,11.6,4.2,11.6,11.4v26
				c0,7.1-5.9,13-13,13h-98.8c-7.2,0-13-5.9-13-13V1952.5z"/>
		</g>
		<g>
			<path id="XMLID_615_" class="st10" d="M1611,1986.2l-24.8-24.8l-18.8,18.8c-8.3,8.3,16.5,33.1,24.8,24.8L1611,1986.2z"/>
			
				<rect id="XMLID_614_" x="1597.8" y="1954.2" transform="matrix(0.7071 -0.7071 0.7071 0.7071 -925.3682 1709.4113)" class="st10" width="6" height="35.1"/>
		</g>
	</g>
</g>
<g>
	<g>
		<g id="XMLID_612_">
			<path class="st9" d="M1504.7,1925.3c0,7.2-5.9,13-13,13h-28c-7.2,0-12.9-5.2-12.8-11.5c0,0,0,0,3.2-12.9
				c4.5-18,12.2-37.1,0.9-50.6c-12-14.4-31.4-5.7-48.8-2.3c-14.7,2.9-14.7,2.9-14.7,2.9c-6.4,0.9-11.6-4.2-11.6-11.4v-26
				c0-7.1,5.8-13,13-13h98.8c7.1,0,13,5.9,13,13V1925.3z"/>
		</g>
		<g>
			<path id="XMLID_611_" class="st10" d="M1399.2,1891.5l24.8,24.8l18.8-18.8c8.3-8.3-16.5-33.1-24.8-24.8L1399.2,1891.5z"/>
			
				<rect id="XMLID_610_" x="1406.5" y="1888.5" transform="matrix(0.7071 -0.7071 0.7071 0.7071 -934.9349 1554.8887)" class="st10" width="6" height="35.1"/>
		</g>
	</g>
	<g>
		<g id="XMLID_597_">
			<path class="st9" d="M1504.7,1952.5c0-7.1-5.9-13-13-13h-28c-7.2,0-12.9,5.2-12.8,11.5c0,0,0,0,3.2,12.9
				c4.5,18,12.2,37.1,0.9,50.6c-12,14.4-31.4,5.7-48.8,2.3c-14.7-2.9-14.7-2.9-14.7-2.9c-6.4-0.9-11.6,4.2-11.6,11.4v26
				c0,7.1,5.8,13,13,13h98.8c7.1,0,13-5.9,13-13V1952.5z"/>
		</g>
		<g>
			<path id="XMLID_593_" class="st10" d="M1399.2,1986.2l24.8-24.8l18.8,18.8c8.3,8.3-16.5,33.1-24.8,24.8L1399.2,1986.2z"/>
			
				<rect id="XMLID_589_" x="1391.9" y="1968.7" transform="matrix(0.7071 -0.7071 0.7071 0.7071 -981.4012 1574.1356)" class="st10" width="35.1" height="6"/>
		</g>
	</g>
</g>
<g>
	<g id="XMLID_581_">
		<path class="st9" d="M1504.7,2177.3c0,7.1-5.9,13-13,13h-28c-7.2,0-12.9-5.2-12.8-11.5c0,0,0,0,3.2-12.9
			c4.5-18,12.2-37.1,0.9-50.6c-12-14.4-31.4-5.7-48.8-2.3c-14.7,2.9-14.7,2.9-14.7,2.9c-6.4,0.9-11.6-4.2-11.6-11.4v-26
			c0-7.2,5.8-13,13-13h98.8c7.1,0,13,5.8,13,13V2177.3z"/>
	</g>
	<g>
		<path id="XMLID_577_" class="st10" d="M1399.2,2143.5l24.8,24.8l18.8-18.8c8.3-8.3-16.5-33.1-24.8-24.8L1399.2,2143.5z"/>
		
			<rect id="XMLID_573_" x="1406.5" y="2140.5" transform="matrix(0.7071 -0.7071 0.7071 0.7071 -1113.1259 1628.6978)" class="st10" width="6" height="35.1"/>
	</g>
</g>
<g>
	<g>
		<g>
			<path class="st11" d="M1544.2,1799.5c0,7.2-5.8,13-13,13h-53.6c-7.2,0-13-5.8-13-13v-11.4c0-7.2,5.8-13,13-13h53.6
				c7.2,0,13,5.8,13,13V1799.5z"/>
			<path class="st9" d="M1544.2,1799.5c0,7.2-5.8,13-13,13h-53.6c-7.2,0-13-5.8-13-13v-11.4c0-7.2,5.8-13,13-13h53.6
				c7.2,0,13,5.8,13,13V1799.5z"/>
		</g>
		<line class="st12" x1="1468.1" y1="1779.7" x2="1540.8" y2="1807.9"/>
	</g>
	<g>
		<g>
			<path class="st11" d="M1463.7,1799.5c0,7.2-5.8,13-13,13h-53.6c-7.2,0-13-5.8-13-13v-11.4c0-7.2,5.8-13,13-13h53.6
				c7.2,0,13,5.8,13,13V1799.5z"/>
			<path class="st9" d="M1463.7,1799.5c0,7.2-5.8,13-13,13h-53.6c-7.2,0-13-5.8-13-13v-11.4c0-7.2,5.8-13,13-13h53.6
				c7.2,0,13,5.8,13,13V1799.5z"/>
		</g>
		<line class="st12" x1="1387.6" y1="1779.7" x2="1460.3" y2="1807.9"/>
	</g>
	<g>
		<g>
			<path class="st11" d="M1624.7,1799.5c0,7.2-5.8,13-13,13h-53.6c-7.2,0-13-5.8-13-13v-11.4c0-7.2,5.8-13,13-13h53.6
				c7.2,0,13,5.8,13,13V1799.5z"/>
			<path class="st9" d="M1624.7,1799.5c0,7.2-5.8,13-13,13h-53.6c-7.2,0-13-5.8-13-13v-11.4c0-7.2,5.8-13,13-13h53.6
				c7.2,0,13,5.8,13,13V1799.5z"/>
		</g>
		<line class="st12" x1="1548.6" y1="1779.7" x2="1621.3" y2="1807.9"/>
	</g>
</g>
<g>
	<g>
		<path class="st9" d="M1295.2,2224.2c0,7.1-5.8,13-13,13h-102c-7.2,0-13-5.9-13-13v-42c0-7.1,5.8-13,13-13h102c7.2,0,13,5.9,13,13
			V2224.2z"/>
	</g>
	<g>
		<path id="XMLID_567_" class="st10" d="M1248.8,2300.1h-35.1v-26.6c0-11.7,35.1-11.7,35.1,0V2300.1z"/>
		<rect id="XMLID_566_" x="1213.7" y="2300.1" class="st10" width="35.1" height="6"/>
	</g>
	<g>
		<path id="XMLID_565_" class="st10" d="M1273.8,2107.1h-35.1v26.6c0,11.7,35.1,11.7,35.1,0V2107.1z"/>
		<rect id="XMLID_564_" x="1238.7" y="2101.1" class="st10" width="35.1" height="6"/>
	</g>
	<g>
		<path id="XMLID_563_" class="st10" d="M1220.8,2107.1h-35.1v26.6c0,11.7,35.1,11.7,35.1,0V2107.1z"/>
		<rect id="XMLID_562_" x="1185.7" y="2101.1" class="st10" width="35.1" height="6"/>
	</g>
</g>
<g>
	<g>
		<g id="XMLID_560_">
			<path class="st9" d="M1167.5,1924.8c0,7.2,5.8,13,13,13h28c7.2,0,12.9-5.2,12.8-11.5c0,0,0,0-3.2-12.9
				c-4.5-18-12.2-37.1-0.9-50.6c12-14.4,31.4-5.7,48.8-2.3c14.7,2.9,14.7,2.9,14.7,2.9c6.4,0.9,11.6-4.2,11.6-11.4v-26
				c0-7.1-5.9-13-13-13h-98.8c-7.2,0-13,5.9-13,13V1924.8z"/>
		</g>
		<g>
			<path id="XMLID_559_" class="st10" d="M1273,1891l-24.8,24.8l-18.8-18.8c-8.3-8.3,16.5-33.1,24.8-24.8L1273,1891z"/>
			
				<rect id="XMLID_558_" x="1245.2" y="1902.5" transform="matrix(0.7071 -0.7071 0.7071 0.7071 -977.5463 1451.0157)" class="st10" width="35.1" height="6"/>
		</g>
	</g>
	<g>
		<g id="XMLID_556_">
			<path class="st9" d="M1167.5,1952c0-7.1,5.8-13,13-13h28c7.2,0,12.9,5.2,12.8,11.5c0,0,0,0-3.2,12.9c-4.5,18-12.2,37.1-0.9,50.6
				c12,14.4,31.4,5.7,48.8,2.3c14.7-2.9,14.7-2.9,14.7-2.9c6.4-0.9,11.6,4.2,11.6,11.4v26c0,7.1-5.9,13-13,13h-98.8
				c-7.2,0-13-5.9-13-13V1952z"/>
		</g>
		<g>
			<path id="XMLID_555_" class="st10" d="M1273,1985.7l-24.8-24.8l-18.8,18.8c-8.3,8.3,16.5,33.1,24.8,24.8L1273,1985.7z"/>
			
				<rect id="XMLID_554_" x="1259.8" y="1953.7" transform="matrix(0.7071 -0.7071 0.7071 0.7071 -1024.0126 1470.2627)" class="st10" width="6" height="35.1"/>
		</g>
	</g>
</g>
<g>
	<g>
		<path class="st11" d="M1247.2,1799c0,7.2-5.8,13-13,13h-53.6c-7.2,0-13-5.8-13-13v-11.4c0-7.2,5.8-13,13-13h53.6
			c7.2,0,13,5.8,13,13V1799z"/>
		<path class="st9" d="M1247.2,1799c0,7.2-5.8,13-13,13h-53.6c-7.2,0-13-5.8-13-13v-11.4c0-7.2,5.8-13,13-13h53.6
			c7.2,0,13,5.8,13,13V1799z"/>
	</g>
	<line class="st12" x1="1171.1" y1="1779.2" x2="1243.8" y2="1807.4"/>
</g>
<g>
	<path class="st8" d="M1440.1,2288.7c0,7.1-5.9,13-13,13h-34c-7.2,0-13-5.9-13-13v-34c0-7.1,5.8-13,13-13h34c7.1,0,13,5.9,13,13
		V2288.7z"/>
	<path class="st9" d="M1440.1,2288.7c0,7.1-5.9,13-13,13h-34c-7.2,0-13-5.9-13-13v-34c0-7.1,5.8-13,13-13h34c7.1,0,13,5.9,13,13
		V2288.7z"/>
</g>
<path class="st13" d="M846.7,1815.3h156.1c7.2,0,13,5.8,13,13v310.6"/>
<path class="st13" d="M1015.8,2309.9v6.8c0,7.2-5.8,13-13,13H773.9c-7.2,0-13-5.8-13-13v-488.4c0-7.2,5.8-13,13-13h12"/>
<line class="st13" x1="1015.5" y1="2198.7" x2="1015.5" y2="2252.9"/>
<line class="st4" x1="762" y1="1922.6" x2="1014.8" y2="1922.6"/>
<line class="st4" x1="762" y1="1943.6" x2="1014.8" y2="1943.6"/>
<line class="st1" x1="762.1" y1="2220.6" x2="1014.8" y2="2220.6"/>
<g>
	<line class="st5" x1="1015.6" y1="2199.3" x2="1015.6" y2="2140.3"/>
	<g>
		<line class="st1" x1="1015.1" y1="2199.4" x2="953.3" y2="2199.4"/>
		<path class="st4" d="M1014.8,2138.3c-33.5,0-60.7,27.2-60.7,60.7"/>
	</g>
</g>
<g>
	<line class="st5" x1="1015.6" y1="2310.3" x2="1015.6" y2="2251.3"/>
	<g>
		<line class="st1" x1="1015.1" y1="2310.4" x2="953.3" y2="2310.4"/>
		<path class="st4" d="M1014.8,2249.3c-33.5,0-60.7,27.2-60.7,60.7"/>
	</g>
</g>
<text transform="matrix(1 0 0 1 831.7128 1884.9301)" class="st2 st3">出纳室</text>
<text transform="matrix(1 0 0 1 831.7128 2287.429)" class="st2 st3">储藏室</text>
<g>
	<line class="st5" x1="786" y1="1815.2" x2="845.1" y2="1815.2"/>
	<g>
		<line class="st1" x1="785.9" y1="1815.8" x2="785.9" y2="1877.5"/>
		<path class="st4" d="M847,1816c0,33.5-27.2,60.7-60.7,60.7"/>
	</g>
</g>
<g>
	<g>
		<path class="st9" d="M1000.1,1978c7.1,0,13,5.8,13,13v102c0,7.1-5.9,13-13,13h-42c-7.2,0-13-5.9-13-13v-102c0-7.2,5.8-13,13-13
			H1000.1z"/>
	</g>
	<g>
		<path id="XMLID_553_" class="st10" d="M898,2024.5v35.1h26.6c11.7,0,11.7-35.1,0-35.1H898z"/>
		<rect id="XMLID_552_" x="892.1" y="2024.5" class="st10" width="6" height="35.1"/>
	</g>
</g>
<g>
	<g>
		<path class="st11" d="M777.5,2117.6c-7.2,0-13-5.8-13-13V2051c0-7.1,5.8-13,13-13h11.4c7.1,0,13,5.8,13,13v53.6
			c0,7.2-5.9,13-13,13H777.5z"/>
		<path class="st9" d="M777.5,2117.6c-7.2,0-13-5.8-13-13V2051c0-7.1,5.8-13,13-13h11.4c7.1,0,13,5.8,13,13v53.6c0,7.2-5.9,13-13,13
			H777.5z"/>
	</g>
	<line class="st12" x1="797.3" y1="2041.5" x2="769.1" y2="2114.1"/>
	<line class="st12" x1="769.1" y1="2041.5" x2="797.3" y2="2114.1"/>
</g>
<g>
	<g>
		<path class="st11" d="M777.5,2198.1c-7.2,0-13-5.8-13-13v-53.6c0-7.1,5.8-13,13-13h11.4c7.1,0,13,5.9,13,13v53.6
			c0,7.2-5.9,13-13,13H777.5z"/>
		<path class="st9" d="M777.5,2198.1c-7.2,0-13-5.8-13-13v-53.6c0-7.1,5.8-13,13-13h11.4c7.1,0,13,5.9,13,13v53.6
			c0,7.2-5.9,13-13,13H777.5z"/>
	</g>
	<line class="st12" x1="797.3" y1="2122" x2="769.1" y2="2194.6"/>
	<line class="st12" x1="769.1" y1="2122" x2="797.3" y2="2194.6"/>
</g>
<g>
	<g>
		<path class="st9" d="M2923.2,1317.6c-7.2,0-13-5.8-13-13v-102c0-7.2,5.8-13,13-13h42c7.1,0,13,5.8,13,13v102c0,7.2-5.9,13-13,13
			H2923.2z"/>
	</g>
	<g>
		<path id="XMLID_551_" class="st10" d="M2847.2,1271.2v-35.1h26.6c11.7,0,11.7,35.1,0,35.1H2847.2z"/>
		<rect id="XMLID_550_" x="2841.3" y="1236.1" class="st10" width="6" height="35.1"/>
	</g>
</g>
<g>
	<path class="st8" d="M757.8,1634.4c0,7.2-5.8,13-13,13h-34c-7.1,0-13-5.8-13-13v-34c0-7.2,5.9-13,13-13h34c7.2,0,13,5.8,13,13
		V1634.4z"/>
	<path class="st9" d="M757.8,1634.4c0,7.2-5.8,13-13,13h-34c-7.1,0-13-5.8-13-13v-34c0-7.2,5.9-13,13-13h34c7.2,0,13,5.8,13,13
		V1634.4z"/>
</g>
<g>
	<path class="st8" d="M757.9,2288.7c0,7.1-5.9,13-13,13h-34c-7.2,0-13-5.9-13-13v-34c0-7.1,5.8-13,13-13h34c7.1,0,13,5.9,13,13
		V2288.7z"/>
	<path class="st9" d="M757.9,2288.7c0,7.1-5.9,13-13,13h-34c-7.2,0-13-5.9-13-13v-34c0-7.1,5.8-13,13-13h34c7.1,0,13,5.9,13,13
		V2288.7z"/>
</g>
<g>
	<path class="st8" d="M2817.4,1623.8c0,7.2-5.9,13-13,13h-34c-7.2,0-13-5.8-13-13v-34c0-7.2,5.8-13,13-13h34c7.1,0,13,5.8,13,13
		V1623.8z"/>
	<path class="st9" d="M2817.4,1623.8c0,7.2-5.9,13-13,13h-34c-7.2,0-13-5.8-13-13v-34c0-7.2,5.8-13,13-13h34c7.1,0,13,5.8,13,13
		V1623.8z"/>
</g>
<g>
	<path class="st8" d="M2129.4,1623.8c0,7.2-5.9,13-13,13h-34c-7.2,0-13-5.8-13-13v-34c0-7.2,5.8-13,13-13h34c7.1,0,13,5.8,13,13
		V1623.8z"/>
	<path class="st9" d="M2129.4,1623.8c0,7.2-5.9,13-13,13h-34c-7.2,0-13-5.8-13-13v-34c0-7.2,5.8-13,13-13h34c7.1,0,13,5.8,13,13
		V1623.8z"/>
</g>
<g>
	<path class="st8" d="M1445.4,1623.8c0,7.2-5.9,13-13,13h-34c-7.2,0-13-5.8-13-13v-34c0-7.2,5.8-13,13-13h34c7.1,0,13,5.8,13,13
		V1623.8z"/>
	<path class="st9" d="M1445.4,1623.8c0,7.2-5.9,13-13,13h-34c-7.2,0-13-5.8-13-13v-34c0-7.2,5.8-13,13-13h34c7.1,0,13,5.8,13,13
		V1623.8z"/>
</g>
<g>
	<path class="st8" d="M2817.4,926.5c0,7.2-5.8,13-13,13h-34c-7.1,0-13-5.8-13-13v-34c0-7.2,5.9-13,13-13h34c7.2,0,13,5.8,13,13
		V926.5z"/>
	<path class="st9" d="M2817.4,926.5c0,7.2-5.8,13-13,13h-34c-7.1,0-13-5.8-13-13v-34c0-7.2,5.9-13,13-13h34c7.2,0,13,5.8,13,13
		V926.5z"/>
</g>
<g>
	<path class="st8" d="M2130.4,926.5c0,7.2-5.8,13-13,13h-34c-7.1,0-13-5.8-13-13v-34c0-7.2,5.9-13,13-13h34c7.2,0,13,5.8,13,13
		V926.5z"/>
	<path class="st9" d="M2130.4,926.5c0,7.2-5.8,13-13,13h-34c-7.1,0-13-5.8-13-13v-34c0-7.2,5.9-13,13-13h34c7.2,0,13,5.8,13,13
		V926.5z"/>
</g>
<g>
	<path class="st8" d="M1446.4,926.5c0,7.2-5.8,13-13,13h-34c-7.2,0-13-5.8-13-13v-34c0-7.2,5.8-13,13-13h34c7.2,0,13,5.8,13,13
		V926.5z"/>
	<path class="st9" d="M1446.4,926.5c0,7.2-5.8,13-13,13h-34c-7.2,0-13-5.8-13-13v-34c0-7.2,5.8-13,13-13h34c7.2,0,13,5.8,13,13
		V926.5z"/>
</g>
<g>
	<g>
		<path class="st9" d="M2502.6,1194.3c-7.2,0-13,5.8-13,13v102c0,7.2,5.8,13,13,13h42c7.1,0,13-5.8,13-13v-102c0-7.2-5.9-13-13-13
			H2502.6z"/>
	</g>
	<g>
		<path id="XMLID_549_" class="st10" d="M2604.7,1240.8v35.1h-26.6c-11.7,0-11.7-35.1,0-35.1H2604.7z"/>
		<rect id="XMLID_548_" x="2604.7" y="1240.8" class="st10" width="6" height="35.1"/>
	</g>
</g>
<g>
	<g>
		<path class="st9" d="M989,609.8c7.1,0,13,5.8,13,13v102c0,7.2-5.9,13-13,13h-42c-7.2,0-13-5.8-13-13v-102c0-7.2,5.8-13,13-13H989z
			"/>
	</g>
	<g>
		<path id="XMLID_547_" class="st10" d="M886.9,656.3v35.1h26.6c11.7,0,11.7-35.1,0-35.1L886.9,656.3z"/>
		<rect id="XMLID_546_" x="880.9" y="656.3" class="st10" width="6" height="35.1"/>
	</g>
</g>
<g>
	<g>
		<path class="st9" d="M989,480.8c7.1,0,13,5.9,13,13v102c0,7.2-5.9,13-13,13h-42c-7.2,0-13-5.8-13-13v-102c0-7.1,5.8-13,13-13H989z
			"/>
	</g>
	<g>
		<path id="XMLID_545_" class="st10" d="M886.9,527.3v35.1h26.6c11.7,0,11.7-35.1,0-35.1L886.9,527.3z"/>
		<rect id="XMLID_544_" x="880.9" y="527.3" class="st10" width="6" height="35.1"/>
	</g>
</g>
<g>
	<g>
		<path class="st9" d="M989,351.8c7.1,0,13,5.9,13,13v102c0,7.1-5.9,13-13,13h-42c-7.2,0-13-5.9-13-13v-102c0-7.1,5.8-13,13-13H989z
			"/>
	</g>
	<g>
		<path id="XMLID_543_" class="st10" d="M886.9,398.3v35.1h26.6c11.7,0,11.7-35.1,0-35.1H886.9z"/>
		<rect id="XMLID_542_" x="880.9" y="398.3" class="st10" width="6" height="35.1"/>
	</g>
</g>
<g>
	<g>
		<path class="st9" d="M2557.7,1336.3c0-7.2-5.9-13-13-13h-102c-7.1,0-13,5.8-13,13v42c0,7.1,5.9,13,13,13h102c7.1,0,13-5.9,13-13
			V1336.3z"/>
	</g>
	<g>
		<path id="XMLID_541_" class="st10" d="M2511.2,1438.3h-35.1v-26.6c0-11.7,35.1-11.7,35.1,0V1438.3z"/>
		<rect id="XMLID_540_" x="2476.1" y="1438.3" class="st10" width="35.1" height="6"/>
	</g>
</g>
<g>
	<g>
		<path class="st9" d="M2428.7,1336.3c0-7.2-5.9-13-13-13h-102c-7.1,0-13,5.8-13,13v42c0,7.1,5.9,13,13,13h102c7.1,0,13-5.9,13-13
			V1336.3z"/>
	</g>
	<g>
		<path id="XMLID_539_" class="st10" d="M2382.2,1438.3h-35.1v-26.6c0-11.7,35.1-11.7,35.1,0V1438.3z"/>
		<rect id="XMLID_538_" x="2347.1" y="1438.3" class="st10" width="35.1" height="6"/>
	</g>
</g>
<g>
	<g>
		<path class="st9" d="M2299.7,1336.3c0-7.2-5.9-13-13-13h-102c-7.1,0-13,5.8-13,13v42c0,7.1,5.9,13,13,13h102c7.1,0,13-5.9,13-13
			V1336.3z"/>
	</g>
	<g>
		<path id="XMLID_537_" class="st10" d="M2253.2,1438.3h-35.1v-26.6c0-11.7,35.1-11.7,35.1,0V1438.3z"/>
		<rect id="XMLID_536_" x="2218.1" y="1438.3" class="st10" width="35.1" height="6"/>
	</g>
</g>
<g>
	<g>
		<path class="st9" d="M2170.7,1336.3c0-7.2-5.9-13-13-13h-102c-7.1,0-13,5.8-13,13v42c0,7.1,5.9,13,13,13h102c7.1,0,13-5.9,13-13
			V1336.3z"/>
	</g>
	<g>
		<path id="XMLID_535_" class="st10" d="M2124.2,1438.3h-35.1v-26.6c0-11.7,35.1-11.7,35.1,0V1438.3z"/>
		<rect id="XMLID_534_" x="2089.1" y="1438.3" class="st10" width="35.1" height="6"/>
	</g>
</g>
<g>
	<g>
		<path class="st9" d="M2041.7,1336.3c0-7.2-5.8-13-13-13h-102c-7.2,0-13,5.8-13,13v42c0,7.1,5.8,13,13,13h102c7.2,0,13-5.9,13-13
			V1336.3z"/>
	</g>
	<g>
		<path id="XMLID_533_" class="st10" d="M1995.2,1438.3h-35.1v-26.6c0-11.7,35.1-11.7,35.1,0V1438.3z"/>
		<rect id="XMLID_532_" x="1960.1" y="1438.3" class="st10" width="35.1" height="6"/>
	</g>
</g>
<g>
	<g>
		<path class="st9" d="M1912.7,1336.3c0-7.2-5.8-13-13-13h-102c-7.2,0-13,5.8-13,13v42c0,7.1,5.8,13,13,13h102c7.2,0,13-5.9,13-13
			V1336.3z"/>
	</g>
	<g>
		<path id="XMLID_531_" class="st10" d="M1866.2,1438.3h-35.1v-26.6c0-11.7,35.1-11.7,35.1,0V1438.3z"/>
		<rect id="XMLID_530_" x="1831.1" y="1438.3" class="st10" width="35.1" height="6"/>
	</g>
</g>
<g>
	<g>
		<path class="st9" d="M1783.7,1336.3c0-7.2-5.8-13-13-13h-102c-7.2,0-13,5.8-13,13v42c0,7.1,5.8,13,13,13h102c7.2,0,13-5.9,13-13
			V1336.3z"/>
	</g>
	<g>
		<path id="XMLID_529_" class="st10" d="M1737.2,1438.3h-35.1v-26.6c0-11.7,35.1-11.7,35.1,0V1438.3z"/>
		<rect id="XMLID_528_" x="1702.1" y="1438.3" class="st10" width="35.1" height="6"/>
	</g>
</g>
<g>
	<g>
		<path class="st9" d="M1654.7,1336.3c0-7.2-5.8-13-13-13h-102c-7.2,0-13,5.8-13,13v42c0,7.1,5.8,13,13,13h102c7.2,0,13-5.9,13-13
			V1336.3z"/>
	</g>
	<g>
		<path id="XMLID_527_" class="st10" d="M1608.2,1438.3h-35.1v-26.6c0-11.7,35.1-11.7,35.1,0V1438.3z"/>
		<rect id="XMLID_526_" x="1573.1" y="1438.3" class="st10" width="35.1" height="6"/>
	</g>
</g>
<g>
	<g>
		<path class="st9" d="M2557.7,1465.8c0-7.2-5.9-13-13-13h-102c-7.1,0-13,5.8-13,13v42c0,7.1,5.9,13,13,13h102c7.1,0,13-5.9,13-13
			V1465.8z"/>
	</g>
	<g>
		<path id="XMLID_525_" class="st10" d="M2511.2,1567.8h-35.1v-26.6c0-11.7,35.1-11.7,35.1,0V1567.8z"/>
		<rect id="XMLID_524_" x="2476.1" y="1567.8" class="st10" width="35.1" height="6"/>
	</g>
</g>
<g>
	<g>
		<path class="st9" d="M2428.7,1465.8c0-7.2-5.9-13-13-13h-102c-7.1,0-13,5.8-13,13v42c0,7.1,5.9,13,13,13h102c7.1,0,13-5.9,13-13
			V1465.8z"/>
	</g>
	<g>
		<path id="XMLID_523_" class="st10" d="M2382.2,1567.8h-35.1v-26.6c0-11.7,35.1-11.7,35.1,0V1567.8z"/>
		<rect id="XMLID_522_" x="2347.1" y="1567.8" class="st10" width="35.1" height="6"/>
	</g>
</g>
<g>
	<g>
		<path class="st9" d="M2299.7,1465.8c0-7.2-5.9-13-13-13h-102c-7.1,0-13,5.8-13,13v42c0,7.1,5.9,13,13,13h102c7.1,0,13-5.9,13-13
			V1465.8z"/>
	</g>
	<g>
		<path id="XMLID_521_" class="st10" d="M2253.2,1567.8h-35.1v-26.6c0-11.7,35.1-11.7,35.1,0V1567.8z"/>
		<rect id="XMLID_520_" x="2218.1" y="1567.8" class="st10" width="35.1" height="6"/>
	</g>
</g>
<g>
	<g>
		<path class="st9" d="M2170.7,1465.8c0-7.2-5.9-13-13-13h-102c-7.1,0-13,5.8-13,13v42c0,7.1,5.9,13,13,13h102c7.1,0,13-5.9,13-13
			V1465.8z"/>
	</g>
	<g>
		<path id="XMLID_519_" class="st10" d="M2124.2,1567.8h-35.1v-26.6c0-11.7,35.1-11.7,35.1,0V1567.8z"/>
		<rect id="XMLID_518_" x="2089.1" y="1567.8" class="st10" width="35.1" height="6"/>
	</g>
</g>
<g>
	<g>
		<path class="st9" d="M1912.7,1465.8c0-7.2-5.8-13-13-13h-102c-7.2,0-13,5.8-13,13v42c0,7.1,5.8,13,13,13h102c7.2,0,13-5.9,13-13
			V1465.8z"/>
	</g>
	<g>
		<path id="XMLID_517_" class="st10" d="M1866.2,1567.8h-35.1v-26.6c0-11.7,35.1-11.7,35.1,0V1567.8z"/>
		<rect id="XMLID_516_" x="1831.1" y="1567.8" class="st10" width="35.1" height="6"/>
	</g>
</g>
<g>
	<g>
		<path class="st9" d="M1783.7,1465.8c0-7.2-5.8-13-13-13h-102c-7.2,0-13,5.8-13,13v42c0,7.1,5.8,13,13,13h102c7.2,0,13-5.9,13-13
			V1465.8z"/>
	</g>
	<g>
		<path id="XMLID_515_" class="st10" d="M1737.2,1567.8h-35.1v-26.6c0-11.7,35.1-11.7,35.1,0V1567.8z"/>
		<rect id="XMLID_514_" x="1702.1" y="1567.8" class="st10" width="35.1" height="6"/>
	</g>
</g>
<g>
	<g>
		<path class="st9" d="M1654.7,1465.8c0-7.2-5.8-13-13-13h-102c-7.2,0-13,5.8-13,13v42c0,7.1,5.8,13,13,13h102c7.2,0,13-5.9,13-13
			V1465.8z"/>
	</g>
	<g>
		<path id="XMLID_513_" class="st10" d="M1608.2,1567.8h-35.1v-26.6c0-11.7,35.1-11.7,35.1,0V1567.8z"/>
		<rect id="XMLID_512_" x="1573.1" y="1567.8" class="st10" width="35.1" height="6"/>
	</g>
</g>
<g>
	<g>
		<path class="st9" d="M2557.7,1180.3c0,7.2-5.9,13-13,13h-102c-7.1,0-13-5.8-13-13v-42c0-7.2,5.9-13,13-13h102c7.1,0,13,5.8,13,13
			V1180.3z"/>
	</g>
	<g>
		<path id="XMLID_511_" class="st10" d="M2511.2,1078.2h-35.1v26.6c0,11.7,35.1,11.7,35.1,0V1078.2z"/>
		<rect id="XMLID_510_" x="2476.1" y="1072.3" class="st10" width="35.1" height="6"/>
	</g>
</g>
<g>
	<g>
		<path class="st9" d="M2428.7,1180.3c0,7.2-5.9,13-13,13h-102c-7.1,0-13-5.8-13-13v-42c0-7.2,5.9-13,13-13h102c7.1,0,13,5.8,13,13
			V1180.3z"/>
	</g>
	<g>
		<path id="XMLID_509_" class="st10" d="M2382.2,1078.2h-35.1v26.6c0,11.7,35.1,11.7,35.1,0V1078.2z"/>
		<rect id="XMLID_508_" x="2347.1" y="1072.3" class="st10" width="35.1" height="6"/>
	</g>
</g>
<g>
	<g>
		<path class="st9" d="M2299.7,1180.3c0,7.2-5.9,13-13,13h-102c-7.1,0-13-5.8-13-13v-42c0-7.2,5.9-13,13-13h102c7.1,0,13,5.8,13,13
			V1180.3z"/>
	</g>
	<g>
		<path id="XMLID_507_" class="st10" d="M2253.2,1078.2h-35.1v26.6c0,11.7,35.1,11.7,35.1,0V1078.2z"/>
		<rect id="XMLID_506_" x="2218.1" y="1072.3" class="st10" width="35.1" height="6"/>
	</g>
</g>
<g>
	<g>
		<path class="st9" d="M2170.7,1180.3c0,7.2-5.9,13-13,13h-102c-7.1,0-13-5.8-13-13v-42c0-7.2,5.9-13,13-13h102c7.1,0,13,5.8,13,13
			V1180.3z"/>
	</g>
	<g>
		<path id="XMLID_505_" class="st10" d="M2124.2,1078.2h-35.1v26.6c0,11.7,35.1,11.7,35.1,0V1078.2z"/>
		<rect id="XMLID_504_" x="2089.1" y="1072.3" class="st10" width="35.1" height="6"/>
	</g>
</g>
<g>
	<g>
		<path class="st9" d="M2041.7,1180.3c0,7.2-5.8,13-13,13h-102c-7.2,0-13-5.8-13-13v-42c0-7.2,5.8-13,13-13h102c7.2,0,13,5.8,13,13
			V1180.3z"/>
	</g>
	<g>
		<path id="XMLID_503_" class="st10" d="M1995.2,1078.2h-35.1v26.6c0,11.7,35.1,11.7,35.1,0V1078.2z"/>
		<rect id="XMLID_502_" x="1960.1" y="1072.3" class="st10" width="35.1" height="6"/>
	</g>
</g>
<g>
	<g>
		<path class="st9" d="M1912.7,1180.3c0,7.2-5.8,13-13,13h-102c-7.2,0-13-5.8-13-13v-42c0-7.2,5.8-13,13-13h102c7.2,0,13,5.8,13,13
			V1180.3z"/>
	</g>
	<g>
		<path id="XMLID_501_" class="st10" d="M1866.2,1078.2h-35.1v26.6c0,11.7,35.1,11.7,35.1,0V1078.2z"/>
		<rect id="XMLID_500_" x="1831.1" y="1072.3" class="st10" width="35.1" height="6"/>
	</g>
</g>
<g>
	<g>
		<path class="st9" d="M1783.7,1180.3c0,7.2-5.8,13-13,13h-102c-7.2,0-13-5.8-13-13v-42c0-7.2,5.8-13,13-13h102c7.2,0,13,5.8,13,13
			V1180.3z"/>
	</g>
	<g>
		<path id="XMLID_499_" class="st10" d="M1737.2,1078.2h-35.1v26.6c0,11.7,35.1,11.7,35.1,0V1078.2z"/>
		<rect id="XMLID_498_" x="1702.1" y="1072.3" class="st10" width="35.1" height="6"/>
	</g>
</g>
<g>
	<g>
		<path class="st9" d="M1654.7,1180.3c0,7.2-5.8,13-13,13h-102c-7.2,0-13-5.8-13-13v-42c0-7.2,5.8-13,13-13h102c7.2,0,13,5.8,13,13
			V1180.3z"/>
	</g>
	<g>
		<path id="XMLID_497_" class="st10" d="M1608.2,1078.2h-35.1v26.6c0,11.7,35.1,11.7,35.1,0V1078.2z"/>
		<rect id="XMLID_496_" x="1573.1" y="1072.3" class="st10" width="35.1" height="6"/>
	</g>
</g>
<g>
	<g>
		<path class="st9" d="M2557.7,1050.8c0,7.2-5.9,13-13,13h-102c-7.1,0-13-5.8-13-13v-42c0-7.2,5.9-13,13-13h102c7.1,0,13,5.8,13,13
			V1050.8z"/>
	</g>
	<g>
		<path id="XMLID_495_" class="st10" d="M2511.2,948.7h-35.1v26.6c0,11.7,35.1,11.7,35.1,0V948.7z"/>
		<rect id="XMLID_494_" x="2476.1" y="942.8" class="st10" width="35.1" height="6"/>
	</g>
</g>
<g>
	<g>
		<path class="st9" d="M2428.7,1050.8c0,7.2-5.9,13-13,13h-102c-7.1,0-13-5.8-13-13v-42c0-7.2,5.9-13,13-13h102c7.1,0,13,5.8,13,13
			V1050.8z"/>
	</g>
	<g>
		<path id="XMLID_493_" class="st10" d="M2382.2,948.7h-35.1v26.6c0,11.7,35.1,11.7,35.1,0V948.7z"/>
		<rect id="XMLID_492_" x="2347.1" y="942.8" class="st10" width="35.1" height="6"/>
	</g>
</g>
<g>
	<g>
		<path class="st9" d="M2299.7,1050.8c0,7.2-5.9,13-13,13h-102c-7.1,0-13-5.8-13-13v-42c0-7.2,5.9-13,13-13h102c7.1,0,13,5.8,13,13
			V1050.8z"/>
	</g>
	<g>
		<path id="XMLID_491_" class="st10" d="M2253.2,948.7h-35.1v26.6c0,11.7,35.1,11.7,35.1,0V948.7z"/>
		<rect id="XMLID_490_" x="2218.1" y="942.8" class="st10" width="35.1" height="6"/>
	</g>
</g>
<g>
	<g>
		<path class="st9" d="M2170.7,1050.8c0,7.2-5.9,13-13,13h-102c-7.1,0-13-5.8-13-13v-42c0-7.2,5.9-13,13-13h102c7.1,0,13,5.8,13,13
			V1050.8z"/>
	</g>
	<g>
		<path id="XMLID_489_" class="st10" d="M2124.2,948.7h-35.1v26.6c0,11.7,35.1,11.7,35.1,0V948.7z"/>
		<rect id="XMLID_488_" x="2089.1" y="942.8" class="st10" width="35.1" height="6"/>
	</g>
</g>
<g>
	<g>
		<path class="st9" d="M1912.7,1050.8c0,7.2-5.8,13-13,13h-102c-7.2,0-13-5.8-13-13v-42c0-7.2,5.8-13,13-13h102c7.2,0,13,5.8,13,13
			V1050.8z"/>
	</g>
	<g>
		<path id="XMLID_487_" class="st10" d="M1866.2,948.7h-35.1v26.6c0,11.7,35.1,11.7,35.1,0V948.7z"/>
		<rect id="XMLID_486_" x="1831.1" y="942.8" class="st10" width="35.1" height="6"/>
	</g>
</g>
<g>
	<g>
		<path class="st9" d="M1783.7,1050.8c0,7.2-5.8,13-13,13h-102c-7.2,0-13-5.8-13-13v-42c0-7.2,5.8-13,13-13h102c7.2,0,13,5.8,13,13
			V1050.8z"/>
	</g>
	<g>
		<path id="XMLID_479_" class="st10" d="M1737.2,948.7h-35.1v26.6c0,11.7,35.1,11.7,35.1,0V948.7z"/>
		<rect id="XMLID_478_" x="1702.1" y="942.8" class="st10" width="35.1" height="6"/>
	</g>
</g>
<g>
	<g>
		<path class="st9" d="M1654.7,1050.8c0,7.2-5.8,13-13,13h-102c-7.2,0-13-5.8-13-13v-42c0-7.2,5.8-13,13-13h102c7.2,0,13,5.8,13,13
			V1050.8z"/>
	</g>
	<g>
		<path id="XMLID_476_" class="st10" d="M1608.2,948.7h-35.1v26.6c0,11.7,35.1,11.7,35.1,0V948.7z"/>
		<rect id="XMLID_319_" x="1573.1" y="942.8" class="st10" width="35.1" height="6"/>
	</g>
</g>
<g>
	<g>
		<path class="st11" d="M776.5,738.1c-7.2,0-13-5.9-13-13v-53.6c0-7.2,5.8-13,13-13h11.4c7.2,0,13,5.8,13,13v53.6
			c0,7.1-5.8,13-13,13H776.5z"/>
		<path class="st9" d="M776.5,738.1c-7.2,0-13-5.9-13-13v-53.6c0-7.2,5.8-13,13-13h11.4c7.2,0,13,5.8,13,13v53.6c0,7.1-5.8,13-13,13
			H776.5z"/>
	</g>
	<line class="st12" x1="796.3" y1="662" x2="768.1" y2="734.6"/>
	<line class="st12" x1="768.1" y1="662" x2="796.3" y2="734.6"/>
</g>
<g>
	<g>
		<path class="st11" d="M776.5,657.1c-7.2,0-13-5.9-13-13v-53.6c0-7.2,5.8-13,13-13h11.4c7.2,0,13,5.8,13,13v53.6
			c0,7.1-5.8,13-13,13H776.5z"/>
		<path class="st9" d="M776.5,657.1c-7.2,0-13-5.9-13-13v-53.6c0-7.2,5.8-13,13-13h11.4c7.2,0,13,5.8,13,13v53.6c0,7.1-5.8,13-13,13
			H776.5z"/>
	</g>
	<line class="st12" x1="796.3" y1="581" x2="768.1" y2="653.6"/>
	<line class="st12" x1="768.1" y1="581" x2="796.3" y2="653.6"/>
</g>
<g>
	<g>
		<path class="st11" d="M776.5,576.1c-7.2,0-13-5.9-13-13v-53.6c0-7.2,5.8-13,13-13h11.4c7.2,0,13,5.8,13,13v53.6
			c0,7.1-5.8,13-13,13H776.5z"/>
		<path class="st9" d="M776.5,576.1c-7.2,0-13-5.9-13-13v-53.6c0-7.2,5.8-13,13-13h11.4c7.2,0,13,5.8,13,13v53.6c0,7.1-5.8,13-13,13
			H776.5z"/>
	</g>
	<line class="st12" x1="796.3" y1="500" x2="768.1" y2="572.6"/>
	<line class="st12" x1="768.1" y1="500" x2="796.3" y2="572.6"/>
</g>
<g>
	<g>
		<path class="st1" d="M802.3,756.5c0,2.2-1.8,4-4,4h-29c-2.2,0-4-1.8-4-4v-8c0-2.2,1.8-4,4-4h29c2.2,0,4,1.8,4,4V756.5z"/>
	</g>
	<g>
		<path class="st1" d="M802.3,777c0,2.2-1.8,4-4,4h-29c-2.2,0-4-1.8-4-4v-8c0-2.2,1.8-4,4-4h29c2.2,0,4,1.8,4,4V777z"/>
	</g>
	<g>
		<path class="st1" d="M802.3,797.5c0,2.2-1.8,4-4,4h-29c-2.2,0-4-1.8-4-4v-8c0-2.2,1.8-4,4-4h29c2.2,0,4,1.8,4,4V797.5z"/>
	</g>
	<g>
		<path class="st1" d="M802.3,818c0,2.2-1.8,4-4,4h-29c-2.2,0-4-1.8-4-4v-8c0-2.2,1.8-4,4-4h29c2.2,0,4,1.8,4,4V818z"/>
	</g>
	<g>
		<path class="st1" d="M802.3,838.5c0,2.2-1.8,4-4,4h-29c-2.2,0-4-1.8-4-4v-8c0-2.2,1.8-4,4-4h29c2.2,0,4,1.8,4,4V838.5z"/>
	</g>
	<g>
		<path class="st1" d="M802.3,859c0,2.2-1.8,4-4,4h-29c-2.2,0-4-1.8-4-4v-8c0-2.2,1.8-4,4-4h29c2.2,0,4,1.8,4,4V859z"/>
	</g>
	<g>
		<path class="st1" d="M802.3,879.5c0,2.2-1.8,4-4,4h-29c-2.2,0-4-1.8-4-4v-8c0-2.2,1.8-4,4-4h29c2.2,0,4,1.8,4,4V879.5z"/>
	</g>
	<g>
		<path class="st1" d="M802.3,900c0,2.2-1.8,4-4,4h-29c-2.2,0-4-1.8-4-4v-8c0-2.2,1.8-4,4-4h29c2.2,0,4,1.8,4,4V900z"/>
	</g>
	<g>
		<path class="st1" d="M802.3,920.5c0,2.2-1.8,4-4,4h-29c-2.2,0-4-1.8-4-4v-8c0-2.2,1.8-4,4-4h29c2.2,0,4,1.8,4,4V920.5z"/>
	</g>
</g>
<g>
	<path class="st8" d="M761.6,999.9c0,7.1-5.9,13-13,13h-34c-7.2,0-13-5.9-13-13v-34c0-7.2,5.8-13,13-13h34c7.1,0,13,5.8,13,13V999.9
		z"/>
	<path class="st9" d="M761.6,999.9c0,7.1-5.9,13-13,13h-34c-7.2,0-13-5.9-13-13v-34c0-7.2,5.8-13,13-13h34c7.1,0,13,5.8,13,13V999.9
		z"/>
</g>
<g>
	<path class="st8" d="M757.6,291c0,7.1-5.9,13-13,13h-34c-7.2,0-13-5.9-13-13v-34c0-7.1,5.8-13,13-13h34c7.1,0,13,5.9,13,13V291z"/>
	<path class="st9" d="M757.6,291c0,7.1-5.9,13-13,13h-34c-7.2,0-13-5.9-13-13v-34c0-7.1,5.8-13,13-13h34c7.1,0,13,5.9,13,13V291z"/>
</g>
<rect x="96" y="121.8" class="st14" width="3374.7" height="2253.3"/>
<line class="st1" x1="999.6" y1="2329.8" x2="3055.4" y2="2329.8"/>
<line class="st1" x1="749.6" y1="161.7" x2="2805.4" y2="161.7"/>
</svg>
